<?xml version="1.0" encoding="UTF-8" standalone="no"?>
<!-- Created with Inkscape (http://www.inkscape.org/) -->
<svg xmlns:dc="http://purl.org/dc/elements/1.1/" xmlns:cc="http://creativecommons.org/ns#" xmlns:rdf="http://www.w3.org/1999/02/22-rdf-syntax-ns#" xmlns:svg="http://www.w3.org/2000/svg" xmlns="http://www.w3.org/2000/svg" xmlns:sodipodi="http://sodipodi.sourceforge.net/DTD/sodipodi-0.dtd" xmlns:inkscape="http://www.inkscape.org/namespaces/inkscape" width="599.99969" height="342.85699" id="svg5241" sodipodi:version="0.32" inkscape:version="0.48.1 " version="1.0" sodipodi:docname="Bandera de las Tres Garantías.svg" inkscape:output_extension="org.inkscape.output.svg.inkscape" inkscape:export-filename="C:\Users\Luis Fernando\Pictures\SVG\Bandera de las Tres Garantías.png" inkscape:export-xdpi="150.00008" inkscape:export-ydpi="150.00008">
  <defs id="defs5243">
    <inkscape:perspective sodipodi:type="inkscape:persp3d" inkscape:vp_x="0 : 526.18109 : 1" inkscape:vp_y="0 : 1000 : 0" inkscape:vp_z="744.09448 : 526.18109 : 1" inkscape:persp3d-origin="372.04724 : 350.78739 : 1" id="perspective5249"/>
    <inkscape:perspective id="perspective6364" inkscape:persp3d-origin="372.04724 : 350.78739 : 1" inkscape:vp_z="744.09448 : 526.18109 : 1" inkscape:vp_y="0 : 1000 : 0" inkscape:vp_x="0 : 526.18109 : 1" sodipodi:type="inkscape:persp3d"/>
    <inkscape:perspective id="perspective3850" inkscape:persp3d-origin="0.5 : 0.33333333 : 1" inkscape:vp_z="1 : 0.5 : 1" inkscape:vp_y="0 : 1000 : 0" inkscape:vp_x="0 : 0.5 : 1" sodipodi:type="inkscape:persp3d"/>
    <path sodipodi:type="arc" style="fill:none;stroke:none" id="path24343-5" sodipodi:cx="-266.91565" sodipodi:cy="417.75043" sodipodi:rx="255.93147" sodipodi:ry="228.47101" d="m -10.984177,417.75043 a 255.93147,228.47101 0 1 1 -511.862943,0 255.93147,228.47101 0 1 1 511.862943,0 z" transform="matrix(0.73033295,0,0,0.81909414,67.881089,-228.46224)"/>
    <inkscape:perspective id="perspective8610" inkscape:persp3d-origin="0.5 : 0.33333333 : 1" inkscape:vp_z="1 : 0.5 : 1" inkscape:vp_y="0 : 1000 : 0" inkscape:vp_x="0 : 0.5 : 1" sodipodi:type="inkscape:persp3d"/>
    <path sodipodi:type="arc" style="fill:none;stroke:none" id="path24343-5-1" sodipodi:cx="-266.91565" sodipodi:cy="417.75043" sodipodi:rx="255.93147" sodipodi:ry="228.47101" d="m -10.984177,417.75043 a 255.93147,228.47101 0 1 1 -511.862943,0 255.93147,228.47101 0 1 1 511.862943,0 z" transform="matrix(0.73033295,0,0,0.81909414,67.881089,-228.46224)"/>
  </defs>
  <sodipodi:namedview id="base" pagecolor="#ffffff" bordercolor="#666666" borderopacity="1.0" inkscape:pageopacity="0.0" inkscape:pageshadow="2" inkscape:zoom="1.5079173" inkscape:cx="299.99985" inkscape:cy="171.4285" inkscape:document-units="px" inkscape:current-layer="g16763" showgrid="false" inkscape:window-width="1366" inkscape:window-height="706" inkscape:window-x="-8" inkscape:window-y="-8" inkscape:window-maximized="1" showguides="true" inkscape:guide-bbox="true">
    <inkscape:grid type="xygrid" id="grid2754" visible="true" enabled="true" empspacing="5" snapvisiblegridlinesonly="true"/>
  </sodipodi:namedview>
  <metadata id="metadata5246">
    <rdf:RDF>
      <cc:Work rdf:about="">
        <dc:format>image/svg+xml</dc:format>
        <dc:type rdf:resource="http://purl.org/dc/dcmitype/StillImage"/>
        <dc:title/>
      </cc:Work>
    </rdf:RDF>
  </metadata>
  <g inkscape:label="Capa 1" inkscape:groupmode="layer" id="layer1" transform="translate(425.71415,59.066311)">
    <g id="g2756" transform="matrix(0.7142859,0,0,0.7142859,-35.918354,32.103466)">
      <g id="g16763">
        <rect style="fill:#ffffff;fill-opacity:1;fill-rule:evenodd" height="479.99966" width="839.99738" y="-127.63766" x="-545.71399" class="fil0" id="rect3073"/>
        <polygon transform="matrix(-2.0145561,0,0,-1.7254444,44.969981,347.29954)" style="fill:#005500;fill-rule:evenodd" points="-123.756,174.724 -123.756,275.255 -123.739,275.255 16.5579,275.255 293.208,82.7508 293.208,-2.934 143.212,-2.934 143.212,-2.934 " class="fil1" id="path1574"/>
        <polygon transform="matrix(2.0145561,0,0,1.7254444,-296.40058,-122.5752)" style="fill:#d40000;fill-opacity:1;fill-rule:evenodd" points="160.264,174.579 16.1886,275.255 16.1886,275.255 293.209,275.255 293.209,82.9175 " class="fil2" id="rect3073_0"/>
        <path style="fill:#ffe680;fill-opacity:1;fill-rule:evenodd;stroke:#d4aa00;stroke-width:1.86059952;stroke-linejoin:round;stroke-miterlimit:4;stroke-opacity:1;stroke-dasharray:none;stroke-dashoffset:0" d="m -137.71948,169.34375 c 0.20222,-1.01291 0.17203,-0.90711 0.4504,-1.57846 0.13077,-0.3154 0.22787,-0.63975 0.21577,-0.72077 -0.0122,-0.081 6.2e-4,-0.21681 0.0281,-0.30175 0.0276,-0.085 0.0695,-0.22396 0.0931,-0.3089 0.0236,-0.085 0.15,-0.41251 0.28078,-0.72791 0.13078,-0.31541 0.22389,-0.63975 0.20691,-0.72077 -0.017,-0.081 0.0731,-0.39859 0.20021,-0.70571 0.12709,-0.30713 0.26657,-0.77047 0.30995,-1.02967 0.0434,-0.25919 0.18239,-0.72254 0.3089,-1.02967 0.12652,-0.30712 0.25919,-0.77047 0.29483,-1.02966 0.0357,-0.25919 0.11986,-0.56393 0.18715,-0.67719 0.13656,-0.22985 1.35696,-4.3159 1.47825,-4.94935 0.0426,-0.2227 0.13798,-0.54392 0.21185,-0.71382 0.0739,-0.16989 1.23843,-4.0157 2.58788,-8.54623 1.8446,-6.19289 2.52972,-8.23102 2.76046,-8.21193 0.27894,0.0231 26.92365,14.57249 29.230581,15.96143 0.5397,0.32494 1.03147,0.5908 1.09282,0.5908 0.14385,0 -0.80862,-1.59922 -1.28118,-2.15113 -0.19922,-0.23267 -0.34253,-0.46937 -0.31847,-0.526 0.0241,-0.0566 -0.096,-0.2662 -0.26683,-0.46571 -0.17082,-0.1995 -0.31058,-0.41861 -0.31058,-0.48691 0,-0.23182 -2.517351,-4.29781 -2.752391,-4.44562 -0.1285,-0.0808 -0.20972,-0.21982 -0.18048,-0.3089 0.0292,-0.0891 -0.0634,-0.30097 -0.20593,-0.47086 -0.14251,-0.1699 -0.36681,-0.54057 -0.49846,-0.82373 -0.13164,-0.28316 -2.83313,-4.7741 -6.00331,-9.97986 -5.04351,-8.28199 -5.72251,-9.49532 -5.43243,-9.70744 0.18233,-0.13332 0.44186,-0.20006 0.57673,-0.14831 0.13486,0.0518 0.30389,-8.2e-4 0.3756,-0.11689 0.0717,-0.11604 0.25706,-0.16237 0.41187,-0.10297 0.15481,0.0594 0.34359,0.008 0.4195,-0.11532 0.0759,-0.12283 0.22429,-0.17001 0.32973,-0.10484 0.10544,0.0652 0.30754,0.046 0.44912,-0.0427 0.14158,-0.0886 0.35009,-0.16798 0.46335,-0.17631 0.78077,-0.0574 2.18578,-0.38196 2.27439,-0.52534 0.0589,-0.0953 0.2337,-0.12457 0.38851,-0.0652 0.15481,0.0594 0.34015,0.013 0.41186,-0.10297 0.0717,-0.11603 0.25706,-0.16237 0.41187,-0.10297 0.15481,0.0594 0.34359,0.008 0.4195,-0.11532 0.0759,-0.12283 0.2243,-0.17001 0.32973,-0.10484 0.10544,0.0652 0.30754,0.046 0.44912,-0.0427 0.14158,-0.0886 0.35009,-0.16798 0.46335,-0.17631 0.78077,-0.0574 2.18578,-0.38196 2.27439,-0.52534 0.0589,-0.0953 0.2337,-0.12457 0.38851,-0.0652 0.15481,0.0594 0.34015,0.013 0.41186,-0.10297 0.0717,-0.11603 0.25706,-0.16237 0.41187,-0.10297 0.15481,0.0594 0.34359,0.008 0.4195,-0.11532 0.0759,-0.12283 0.2243,-0.17001 0.32973,-0.10484 0.10544,0.0652 0.30754,0.046 0.44912,-0.0427 0.14158,-0.0886 0.35009,-0.16798 0.46335,-0.17631 0.78077,-0.0574 2.185781,-0.38196 2.274401,-0.52534 0.0589,-0.0952 0.23369,-0.12457 0.3885,-0.0652 0.15481,0.0594 0.34015,0.013 0.41187,-0.10297 0.0717,-0.11605 0.25705,-0.16237 0.41186,-0.10297 0.15481,0.0594 0.34359,0.008 0.4195,-0.11532 0.0759,-0.12283 0.2243,-0.17002 0.32973,-0.10484 0.10544,0.0652 0.30592,0.0479 0.4455,-0.0384 0.1396,-0.0863 0.39443,-0.17007 0.56632,-0.18622 0.77113,-0.0725 2.80519,-0.56697 3.0086,-0.73143 0.12369,-0.10001 0.27969,-0.12703 0.34668,-0.06 0.067,0.067 0.24218,0.0474 0.3893,-0.0435 0.14712,-0.0909 0.40813,-0.17849 0.58002,-0.19457 0.73552,-0.0688 3.62665,-0.77924 3.83233,-0.94169 0.12369,-0.0977 0.27969,-0.12281 0.34668,-0.0558 0.067,0.067 0.24218,0.0474 0.3893,-0.0435 0.14712,-0.0909 0.40813,-0.17849 0.58002,-0.19457 0.53973,-0.0505 3.5977,-0.75883 3.80976,-0.88247 0.11127,-0.0649 0.34295,-0.13063 0.51484,-0.14614 0.17188,-0.0155 0.63686,-0.10208 1.03328,-0.1924 l 0.72077,-0.16421 -0.91231,-0.26993 c -0.50178,-0.14846 -0.98189,-0.22692 -1.06692,-0.17437 -0.085,0.0526 -0.21672,-0.005 -0.29264,-0.12778 -0.0759,-0.12284 -0.26469,-0.17472 -0.4195,-0.11532 -0.15481,0.0594 -0.33776,0.0169 -0.40656,-0.0944 -0.0688,-0.11133 -0.23394,-0.18532 -0.36698,-0.16446 -0.13304,0.0209 -0.38089,-0.0194 -0.55079,-0.0895 -0.39637,-0.16354 -3.71068,-1.01302 -4.12228,-1.05657 -0.17189,-0.0182 -0.4329,-0.10747 -0.58002,-0.19839 -0.14713,-0.0909 -0.32231,-0.11051 -0.3893,-0.0435 -0.067,0.067 -0.23641,0.0267 -0.37649,-0.0896 -0.14008,-0.11625 -0.33394,-0.19341 -0.43081,-0.17145 -0.0969,0.022 -0.31513,-0.0175 -0.48503,-0.0877 -0.39563,-0.16352 -3.70989,-1.01316 -4.12228,-1.05679 -0.17189,-0.0182 -0.4329,-0.10746 -0.58002,-0.19839 -0.14712,-0.0909 -0.32231,-0.11051 -0.3893,-0.0435 -0.067,0.067 -0.23641,0.0267 -0.37649,-0.0896 -0.14008,-0.11625 -0.33394,-0.19341 -0.43081,-0.17145 -0.0969,0.022 -0.31513,-0.0154 -0.48503,-0.0831 -0.4985,-0.19854 -3.557531,-0.99876 -4.118661,-1.07742 -0.28316,-0.0397 -0.56117,-0.0927 -0.6178,-0.11772 -0.0566,-0.0251 -0.19564,-0.0636 -0.3089,-0.0856 -0.11326,-0.022 -0.34494,-0.0958 -0.51484,-0.1639 -0.45194,-0.18123 -4.56278,-1.23739 -5.04536,-1.29626 -0.22653,-0.0276 -0.4582,-0.0721 -0.51483,-0.0988 -0.0566,-0.0267 -0.19564,-0.0665 -0.3089,-0.0885 -0.11326,-0.022 -0.34494,-0.097 -0.51484,-0.16657 -0.40219,-0.16477 -3.68808,-1.00558 -4.22163,-1.08024 -0.22652,-0.0317 -0.4582,-0.0795 -0.51483,-0.10616 -0.0566,-0.0267 -0.19564,-0.0619 -0.3089,-0.0782 -0.44908,-0.0646 -1.17687,-0.57756 -0.99608,-0.70202 0.36743,-0.25295 1.08607,-1.41521 0.95567,-1.54561 -0.0722,-0.0722 -0.0231,-0.1312 0.10905,-0.1312 0.13215,0 0.24026,-0.13901 0.24026,-0.3089 0,-0.1699 0.0727,-0.3089 0.16153,-0.3089 0.1976,0 0.98111,-1.27797 0.91536,-1.49302 -0.026,-0.0849 0.0454,-0.15445 0.1587,-0.15445 0.11326,0 0.20594,-0.139 0.20594,-0.3089 0,-0.16989 0.0781,-0.3089 0.1735,-0.3089 0.0954,0 0.35027,-0.34498 0.56632,-0.76663 0.21605,-0.42164 0.5427,-0.93562 0.7259,-1.14217 0.1832,-0.20654 0.50755,-0.71876 0.72077,-1.13825 0.21322,-0.419492 0.44638,-0.809047 0.51812,-0.86568 0.0717,-0.05663 2.79521,-4.319448 6.05214,-9.472928 3.25694,-5.153478 6.062711,-9.532702 6.235061,-9.731607 0.17235,-0.198905 0.27532,-0.396519 0.22882,-0.439143 -0.0899,-0.08246 -11.885701,6.093431 -12.234601,6.405654 -0.11326,0.10136 -0.25227,0.189441 -0.3089,0.195743 -0.29311,0.03262 -3.20195,1.58699 -3.26104,1.742578 -0.038,0.10003 -0.15382,0.1295 -0.25741,0.06548 -0.10359,-0.06402 -0.18835,-0.01827 -0.18835,0.101682 0,0.119952 -0.0695,0.19968 -0.15445,0.177185 -0.22157,-0.05867 -2.81809,1.292501 -2.90065,1.509443 -0.038,0.09982 -0.15383,0.129108 -0.25742,0.06509 -0.10359,-0.06402 -0.18834,-0.0028 -0.18834,0.13601 0,0.138824 -0.0539,0.198534 -0.11973,0.132692 -0.13437,-0.134372 -3.23945,1.479979 -3.34725,1.740267 -0.038,0.09173 -0.15383,0.114394 -0.25742,0.05037 -0.10358,-0.06402 -0.18834,-0.01827 -0.18834,0.101682 0,0.119952 -0.0695,0.199776 -0.15445,0.177395 -0.22276,-0.05869 -3.23027,1.498194 -3.31252,1.714781 -0.038,0.10003 -0.15383,0.1295 -0.25742,0.06548 -0.10358,-0.06402 -0.18834,-0.01827 -0.18834,0.101682 0,0.119952 -0.0695,0.199681 -0.15445,0.177186 -0.22608,-0.05988 -2.80522,1.289394 -2.98288,1.560478 -0.0855,0.130424 -0.15404,0.141269 -0.1576,0.02492 -0.004,-0.11326 -0.0922,-0.07007 -0.19727,0.09598 -0.1522,0.240657 -0.24105,0.177979 -0.43784,-0.3089 -0.13579,-0.335954 -0.26479,-0.749827 -0.28666,-0.919723 -0.0466,-0.361997 -0.68795,-2.639643 -0.86979,-3.088998 -0.0688,-0.169895 -0.1366,-0.40157 -0.15076,-0.514833 -0.0571,-0.456025 -0.3791,-1.660261 -0.49566,-1.853399 -0.0684,-0.11326 -0.1512,-0.391274 -0.18411,-0.6178 -0.0329,-0.226526 -0.11931,-0.550871 -0.19199,-0.720766 -0.0727,-0.169895 -0.14571,-0.401569 -0.16229,-0.514833 -0.12491,-0.853369 -0.39634,-1.774191 -0.5512,-1.869903 -0.10227,-0.06321 -0.13922,-0.190544 -0.0821,-0.282971 0.0911,-0.147407 -0.0899,-0.888438 -0.45512,-1.862824 -0.0637,-0.169895 -0.14926,-0.49424 -0.19019,-0.720766 -0.0409,-0.226527 -0.1339,-0.550872 -0.20657,-0.720767 -0.0727,-0.169894 -0.14572,-0.401569 -0.1623,-0.514833 -0.12491,-0.853369 -0.39634,-1.774192 -0.5512,-1.869903 -0.10227,-0.06321 -0.13744,-0.193412 -0.0782,-0.289345 0.0593,-0.09593 2e-5,-0.43704 -0.13172,-0.75802 -0.13174,-0.320977 -0.25729,-0.676267 -0.27901,-0.789529 -0.0217,-0.11326 -0.0612,-0.252269 -0.0878,-0.3089 -0.0266,-0.05663 -0.093,-0.378667 -0.14759,-0.715634 -0.0546,-0.336967 -0.18518,-0.716174 -0.29018,-0.842681 -0.10498,-0.126504 -0.14277,-0.278138 -0.084,-0.336956 0.0588,-0.05881 -0.003,-0.37464 -0.13686,-0.70182 -0.13409,-0.32718 -0.26158,-0.68754 -0.2833,-0.80081 -0.0217,-0.11326 -0.0605,-0.25227 -0.0861,-0.3089 -0.0257,-0.0566 -0.0872,-0.33464 -0.13673,-0.6178 -0.0495,-0.28315 -0.14952,-0.65384 -0.2222,-0.82373 -0.0727,-0.1699 -0.15016,-0.40157 -0.17217,-0.51483 -0.022,-0.11326 -0.0618,-0.25227 -0.0883,-0.3089 -0.0266,-0.0566 -0.093,-0.37867 -0.14758,-0.71564 -0.0546,-0.33696 -0.18519,-0.71617 -0.29019,-0.84268 -0.10498,-0.1265 -0.14276,-0.27813 -0.0839,-0.33695 0.0588,-0.0588 -0.003,-0.37464 -0.13687,-0.70182 -0.13409,-0.32718 -0.26157,-0.68755 -0.28329,-0.80081 -0.0217,-0.11326 -0.0612,-0.25227 -0.0878,-0.3089 -0.0266,-0.0566 -0.093,-0.37867 -0.14758,-0.71563 -0.0546,-0.33697 -0.18519,-0.71618 -0.29018,-0.84269 -0.10499,-0.1265 -0.14939,-0.27151 -0.0987,-0.32224 0.0507,-0.0507 -0.0332,-0.50555 -0.18649,-1.01072 -0.17071,-0.56254 -0.32295,-0.79877 -0.39283,-0.60959 -0.23658,0.64038 -5.14164,17.209055 -5.18207,17.504328 -0.0232,0.169895 -0.14442,0.560183 -0.26924,0.867307 -0.12483,0.307123 -0.26246,0.770473 -0.30584,1.029666 -0.0434,0.259193 -0.18238,0.722542 -0.3089,1.029666 -0.12651,0.307122 -0.26552,0.770471 -0.3089,1.029666 -0.0434,0.259193 -0.18238,0.722544 -0.3089,1.029666 -0.12651,0.307122 -0.26552,0.770472 -0.3089,1.029666 -0.0434,0.259193 -0.18495,0.729317 -0.31462,1.044721 -0.12967,0.315403 -0.22186,0.639748 -0.20488,0.720766 0.017,0.08102 -0.0845,0.425315 -0.22547,0.765105 -0.141,0.33979 -0.28247,0.803139 -0.31439,1.029666 -0.0319,0.226527 -0.15955,0.66315 -0.28363,0.970273 -0.12408,0.307123 -0.26109,0.770472 -0.30447,1.029666 -0.0434,0.259194 -0.188,0.737302 -0.32137,1.062468 -0.13338,0.325164 -0.26166,0.822697 -0.28508,1.105626 -0.0616,0.744599 -0.38744,0.770516 -1.62679,0.129402 -0.6061,-0.313535 -1.1715,-0.551523 -1.25645,-0.528867 -0.085,0.02265 -0.15445,-0.03739 -0.15445,-0.133462 0,-0.09605 -0.39384,-0.348345 -0.87521,-0.560633 -0.48137,-0.212287 -0.92155,-0.445586 -0.97819,-0.518445 -0.15815,-0.20347 -1.94848,-1.083374 -2.01535,-0.990497 -0.0325,0.04507 -0.12512,-0.0187 -0.20594,-0.141698 -0.18468,-0.281076 -3.79892,-2.258513 -4.00818,-2.192972 -0.085,0.0266 -0.15446,-0.03023 -0.15446,-0.12628 0,-0.09605 -0.39385,-0.348343 -0.87521,-0.560632 -0.48138,-0.212287 -0.92155,-0.445587 -0.97818,-0.518445 -0.15816,-0.203471 -1.94849,-1.083373 -2.01537,-0.990496 -0.0325,0.04507 -0.12516,-0.02097 -0.20593,-0.146751 -0.17017,-0.264843 -1.30526,-0.875664 -1.5445,-0.83113 -0.089,0.01658 -0.22808,-0.07325 -0.3089,-0.199605 -0.16702,-0.261151 -1.96913,-1.213059 -2.05933,-1.087779 -0.0325,0.04507 -0.12516,-0.02097 -0.20594,-0.146751 -0.17017,-0.264845 -1.30526,-0.875665 -1.54449,-0.831132 -0.089,0.01658 -0.22809,-0.07323 -0.3089,-0.199605 -0.16702,-0.26115 -1.96913,-1.213059 -2.05933,-1.087779 -0.0325,0.04507 -0.12516,-0.02097 -0.20594,-0.146749 -0.17633,-0.274434 -1.52422,-1.006244 -1.74291,-0.946291 -0.085,0.02328 -0.15446,-0.0558 -0.15446,-0.175746 0,-0.119952 -0.0927,-0.160813 -0.20593,-0.09082 -0.11326,0.07 -0.20594,0.0463 -0.20594,-0.05267 0,-0.185399 -1.49806,-0.973687 -1.60349,-0.843764 -0.0325,0.03998 -0.12516,-0.0302 -0.20593,-0.15598 -0.17018,-0.264845 -1.30527,-0.875664 -1.5445,-0.831132 -0.089,0.01658 -0.22809,-0.06467 -0.3089,-0.180541 -0.1506,-0.215941 -1.19075,-0.921943 -1.35831,-0.921943 -0.0512,0 3.88394,6.546891 8.74492,14.548645 4.86098,8.001756 8.83814,14.621976 8.83814,14.711606 0,0.0896 -0.41815,0.22567 -0.92924,0.30231 -0.51107,0.0766 -0.98082,0.22284 -1.04388,0.32488 -0.0631,0.10204 -0.20094,0.13221 -0.30637,0.067 -0.10542,-0.0652 -0.30592,-0.0479 -0.4455,0.0384 -0.13958,0.0863 -0.39443,0.16796 -0.56632,0.18154 -0.3934,0.0311 -3.29594,0.70939 -3.71042,0.86712 -0.16989,0.0647 -0.40157,0.13556 -0.51483,0.15757 -0.11326,0.022 -0.25226,0.0618 -0.30891,0.0885 -0.0567,0.0267 -0.2883,0.0727 -0.51482,0.10234 -0.97333,0.12717 -3.72577,0.80363 -3.93169,0.96627 -0.12362,0.0977 -0.27969,0.12281 -0.34668,0.0558 -0.0669,-0.067 -0.24217,-0.0474 -0.3893,0.0435 -0.14712,0.0909 -0.40812,0.17848 -0.58002,0.19456 -0.73551,0.0688 -3.62664,0.77924 -3.83233,0.9417 -0.12362,0.0977 -0.27969,0.1228 -0.34668,0.0558 -0.0669,-0.067 -0.24217,-0.0474 -0.3893,0.0435 -0.14712,0.0909 -0.40812,0.17848 -0.58002,0.19456 -0.73551,0.0688 -3.62664,0.77924 -3.83233,0.9417 -0.12362,0.0977 -0.27969,0.1228 -0.34668,0.0558 -0.0669,-0.067 -0.24217,-0.0474 -0.3893,0.0435 -0.14712,0.0909 -0.40813,0.17848 -0.58002,0.19456 -0.73551,0.0688 -3.62664,0.77924 -3.83233,0.9417 -0.12362,0.0977 -0.27969,0.1228 -0.34668,0.0558 -0.0669,-0.067 -0.24217,-0.0474 -0.3893,0.0435 -0.14712,0.0909 -0.40813,0.17702 -0.58002,0.19132 -0.17188,0.0143 -1.41704,0.28426 -2.767,0.59991 -1.88969,0.44184 -2.37184,0.62015 -2.09536,0.77487 0.19751,0.11053 0.41314,0.14694 0.47916,0.0809 0.0661,-0.066 0.24667,-0.015 0.40141,0.11344 0.15473,0.12842 0.34007,0.17476 0.41186,0.10297 0.0718,-0.0718 0.23172,-0.0508 0.35541,0.0466 0.19551,0.15403 1.7916,0.58956 2.6197,0.71482 0.15526,0.0235 0.39815,0.11507 0.53972,0.20352 0.14158,0.0884 0.34368,0.1075 0.44912,0.0423 0.10542,-0.0652 0.25382,-0.018 0.32974,0.10485 0.0759,0.12284 0.26468,0.17472 0.4195,0.11532 0.15481,-0.0594 0.33776,-0.0169 0.40656,0.0944 0.0689,0.11133 0.23394,0.18532 0.36698,0.16446 0.133,-0.0209 0.3809,0.0191 0.55079,0.0888 0.4071,0.16699 2.89914,0.81074 3.29855,0.85209 0.17189,0.0178 0.42673,0.10294 0.56631,0.18921 0.13958,0.0863 0.34006,0.10354 0.44551,0.0384 0.10542,-0.0652 0.25381,-0.018 0.32973,0.10484 0.0759,0.12284 0.26468,0.17473 0.41949,0.11532 0.15482,-0.0594 0.33777,-0.0169 0.40656,0.0944 0.0689,0.11133 0.23394,0.18533 0.36699,0.16446 0.133,-0.0209 0.38089,0.0191 0.55078,0.0888 0.40711,0.167 2.89915,0.81075 3.29856,0.8521 0.17189,0.0178 0.42673,0.10294 0.56631,0.1892 0.13958,0.0863 0.34007,0.10355 0.44551,0.0384 0.10542,-0.0652 0.2538,-0.018 0.32973,0.10485 0.0759,0.12284 0.26468,0.17473 0.41949,0.11532 0.15481,-0.0594 0.34016,-0.013 0.41187,0.10297 0.0717,0.11603 0.25705,0.16237 0.41186,0.10297 0.15482,-0.0594 0.32808,-0.0326 0.38502,0.0595 0.0792,0.12825 2.17875,0.68326 2.79272,0.73827 0.0567,0.005 0.2188,0.0828 0.36039,0.17268 0.14158,0.0899 0.34368,0.11014 0.44912,0.045 0.10542,-0.0652 0.2538,-0.018 0.32972,0.10484 0.0759,0.12284 0.26469,0.17473 0.4195,0.11532 0.15481,-0.0594 0.34016,-0.013 0.41186,0.10297 0.0717,0.11603 0.25706,0.16237 0.41187,0.10297 0.15481,-0.0594 0.34016,-0.013 0.41187,0.10297 0.0717,0.11603 0.25705,0.16237 0.41186,0.10297 0.15481,-0.0594 0.32808,-0.0326 0.38502,0.0595 0.0792,0.12826 2.17875,0.68326 2.79272,0.73827 0.0567,0.005 0.2188,0.0828 0.36038,0.17268 0.14159,0.0899 0.34369,0.11014 0.44912,0.045 0.10542,-0.0652 0.25382,-0.018 0.32973,0.10484 0.0759,0.12284 0.26469,0.17473 0.4195,0.11532 0.15481,-0.0594 0.34015,-0.013 0.41188,0.10297 0.0717,0.11603 0.25705,0.16237 0.41186,0.10297 0.1548,-0.0594 0.33777,-0.0169 0.40656,0.0944 0.0687,0.11133 0.23394,0.18533 0.36698,0.16446 0.133,-0.0209 0.38089,0.0157 0.55079,0.0812 0.16989,0.0655 0.56387,0.19602 0.87549,0.28999 l 0.56658,0.17086 -3.5243,5.5601 c -1.93837,3.05806 -3.57662,5.69912 -3.64057,5.86901 -0.064,0.1699 -0.17381,0.35524 -0.24416,0.41187 -0.3468,0.27916 -1.00644,1.40122 -0.8914,1.51626 0.0721,0.0722 0.0231,0.13121 -0.10906,0.13121 -0.13216,0 -0.24027,0.0965 -0.24027,0.21454 0,0.11799 -0.18891,0.41733 -0.41983,0.66518 -0.2309,0.24786 -0.47262,0.661 -0.53715,0.91809 -0.0645,0.2571 -0.19995,0.46745 -0.30093,0.46745 -0.10094,0 -0.18361,0.0965 -0.18361,0.21454 0,0.11801 -0.18214,0.41005 -0.40475,0.64899 -0.2226,0.23894 -0.35615,0.51308 -0.29675,0.60919 0.0594,0.0961 0.01,0.17475 -0.11004,0.17475 -0.11998,0 -0.21809,0.139 -0.21809,0.3089 0,0.16989 -0.0727,0.3089 -0.16153,0.3089 -0.1976,0 -0.98111,1.27796 -0.91536,1.49301 0.026,0.085 -0.0455,0.15445 -0.15871,0.15445 -0.11326,0 -0.20594,0.0965 -0.20594,0.21455 0,0.118 -0.18891,0.41733 -0.41983,0.66518 -0.2309,0.24785 -0.47262,0.66099 -0.53715,0.91809 -0.0645,0.2571 -0.19995,0.46745 -0.30093,0.46745 -0.10094,0 -0.18361,0.0965 -0.18361,0.21454 0,0.11801 -0.18214,0.41005 -0.40475,0.64899 -0.2226,0.23894 -0.35615,0.51308 -0.29675,0.60919 0.0594,0.0961 0.01,0.17474 -0.11004,0.17474 -0.11998,0 -0.21809,0.13901 -0.21809,0.3089 0,0.1699 -0.0927,0.3089 -0.20593,0.3089 -0.11326,0 -0.20594,0.0965 -0.20594,0.21455 0,0.118 -0.18214,0.41004 -0.40474,0.64899 -0.22261,0.23894 -0.35614,0.51307 -0.29674,0.60918 0.0594,0.0961 0.01,0.17475 -0.11004,0.17475 -0.11998,0 -0.21808,0.13128 -0.21808,0.29174 0,0.16045 -0.0749,0.32263 -0.16644,0.36038 -0.18504,0.0763 -1.54937,2.02501 -1.41775,2.02501 0.0456,0 7.11272,-3.70644 15.70455,-8.23654 16.84601,-8.88218 15.89914,-8.4702 16.10617,-7.00765 0.0397,0.28034 0.15806,0.61321 0.26305,0.73971 0.10499,0.12651 0.14277,0.27814 0.084,0.33696 -0.0588,0.0588 0.003,0.37463 0.13686,0.70182 0.13409,0.32718 0.26158,0.68754 0.2833,0.80081 0.0217,0.11326 0.0605,0.25227 0.0861,0.3089 0.0257,0.0566 0.0872,0.33464 0.13673,0.6178 0.0495,0.28316 0.14952,0.65383 0.22221,0.82373 0.0727,0.16989 0.14571,0.40157 0.16229,0.51483 0.12491,0.85337 0.39634,1.77419 0.5512,1.86991 0.10227,0.0632 0.13744,0.19341 0.0781,0.28934 -0.0593,0.0959 -2e-5,0.43704 0.13172,0.75802 0.13174,0.32098 0.25729,0.67627 0.27901,0.78953 0.0217,0.11326 0.0605,0.25227 0.0862,0.3089 0.0257,0.0566 0.0872,0.33464 0.13672,0.6178 0.0495,0.28316 0.14953,0.65384 0.22221,0.82373 0.0727,0.1699 0.14374,0.40157 0.15791,0.51484 0.0571,0.45602 0.3791,1.66026 0.49566,1.8534 0.0683,0.11326 0.1512,0.39127 0.18411,0.6178 0.0329,0.22652 0.11931,0.55087 0.19198,0.72076 0.0727,0.1699 0.14572,0.40157 0.1623,0.51483 0.1249,0.85337 0.39633,1.7742 0.5512,1.86991 0.10227,0.0632 0.13921,0.19054 0.0821,0.28297 -0.0911,0.1474 0.0899,0.88843 0.45512,1.86282 0.0637,0.1699 0.14926,0.49424 0.19019,0.72077 0.0409,0.22653 0.1339,0.55087 0.20657,0.72077 0.0727,0.16989 0.14375,0.40157 0.15792,0.51483 0.0787,0.62875 0.39809,1.68171 0.57787,1.90488 0.11404,0.14158 0.15559,0.25742 0.0923,0.25742 -0.1071,0 0.54185,2.60564 0.82062,3.29493 0.0687,0.16989 0.14486,0.4479 0.16921,0.6178 0.0971,0.67764 1.00573,3.82119 1.15356,3.99104 0.0868,0.0997 0.22957,-0.17831 0.31731,-0.6178 l 0,0 z" id="path4277" inkscape:connector-curvature="0"/>
        <path inkscape:connector-curvature="0" id="path5047" d="m 200.23,334.60476 c 0.20222,-1.01291 0.17203,-0.90711 0.4504,-1.57846 0.13077,-0.31541 0.22787,-0.63975 0.21577,-0.72077 -0.0122,-0.081 6.2e-4,-0.21681 0.0281,-0.30176 0.0276,-0.0849 0.0695,-0.22395 0.0931,-0.3089 0.0236,-0.0849 0.15,-0.4125 0.28078,-0.72791 0.13078,-0.3154 0.22389,-0.63974 0.20691,-0.72076 -0.017,-0.081 0.0731,-0.39859 0.20021,-0.70572 0.12709,-0.30712 0.26657,-0.77047 0.30995,-1.02966 0.0434,-0.2592 0.18239,-0.72254 0.3089,-1.02967 0.12652,-0.30712 0.25919,-0.77047 0.29483,-1.02966 0.0357,-0.2592 0.11986,-0.56393 0.18715,-0.6772 0.13656,-0.22985 1.35696,-4.3159 1.47825,-4.94934 0.0426,-0.22271 0.13798,-0.54393 0.21185,-0.71382 0.0739,-0.1699 1.23843,-4.0157 2.58788,-8.54623 1.8446,-6.19289 2.52972,-8.23103 2.76046,-8.21193 0.27894,0.0231 26.92365,14.57249 29.23058,15.96143 0.5397,0.32494 1.03147,0.5908 1.09282,0.5908 0.14385,0 -0.80862,-1.59922 -1.28118,-2.15113 -0.19922,-0.23267 -0.34253,-0.46937 -0.31847,-0.52601 0.0241,-0.0566 -0.096,-0.26619 -0.26683,-0.4657 -0.17082,-0.19951 -0.31058,-0.41862 -0.31058,-0.48691 0,-0.23182 -2.51735,-4.29781 -2.75239,-4.44562 -0.1285,-0.0808 -0.20972,-0.21982 -0.18048,-0.3089 0.0292,-0.0891 -0.0634,-0.30097 -0.20593,-0.47086 -0.14251,-0.1699 -0.36681,-0.54058 -0.49846,-0.82374 -0.13164,-0.28315 -2.83313,-4.77409 -6.00331,-9.97985 -5.04351,-8.28199 -5.72251,-9.49533 -5.43243,-9.70744 0.18233,-0.13332 0.44186,-0.20007 0.57673,-0.14831 0.13486,0.0518 0.30389,-8.3e-4 0.3756,-0.11689 0.0717,-0.11605 0.25706,-0.16237 0.41187,-0.10297 0.15481,0.0594 0.34359,0.008 0.4195,-0.11532 0.0759,-0.12283 0.22429,-0.17001 0.32973,-0.10484 0.10544,0.0652 0.30754,0.046 0.44912,-0.0427 0.14158,-0.0886 0.35009,-0.16798 0.46335,-0.17631 0.78077,-0.0574 2.18578,-0.38196 2.27439,-0.52534 0.0589,-0.0953 0.2337,-0.12457 0.38851,-0.0652 0.15481,0.0594 0.34015,0.013 0.41186,-0.10297 0.0717,-0.11603 0.25706,-0.16237 0.41187,-0.10297 0.15481,0.0594 0.34359,0.008 0.4195,-0.11532 0.0759,-0.12284 0.2243,-0.17002 0.32973,-0.10485 0.10544,0.0652 0.30754,0.046 0.44912,-0.0427 0.14158,-0.0886 0.35009,-0.16797 0.46335,-0.1763 0.78077,-0.0574 2.18578,-0.38196 2.27439,-0.52534 0.0589,-0.0953 0.2337,-0.12457 0.38851,-0.0652 0.15481,0.0594 0.34015,0.013 0.41186,-0.10297 0.0717,-0.11603 0.25706,-0.16237 0.41187,-0.10297 0.15481,0.0594 0.34359,0.008 0.4195,-0.11532 0.0759,-0.12284 0.2243,-0.17002 0.32973,-0.10485 0.10544,0.0652 0.30754,0.046 0.44912,-0.0427 0.14158,-0.0886 0.35009,-0.16797 0.46335,-0.1763 0.78077,-0.0574 2.18578,-0.38197 2.2744,-0.52534 0.0589,-0.0952 0.23369,-0.12458 0.3885,-0.0652 0.15481,0.0594 0.34015,0.013 0.41187,-0.10297 0.0717,-0.11605 0.25705,-0.16238 0.41186,-0.10297 0.15481,0.0594 0.34359,0.008 0.4195,-0.11532 0.0759,-0.12284 0.2243,-0.17002 0.32973,-0.10485 0.10544,0.0652 0.30592,0.0479 0.4455,-0.0384 0.1396,-0.0863 0.39443,-0.17007 0.56632,-0.18622 0.77113,-0.0725 2.80519,-0.56696 3.0086,-0.73143 0.12369,-0.1 0.27969,-0.12702 0.34668,-0.06 0.067,0.067 0.24218,0.0474 0.3893,-0.0435 0.14712,-0.0909 0.40813,-0.17848 0.58002,-0.19456 0.73552,-0.0688 3.62665,-0.77924 3.83233,-0.9417 0.12369,-0.0977 0.27969,-0.1228 0.34668,-0.0558 0.067,0.067 0.24218,0.0474 0.3893,-0.0435 0.14712,-0.0909 0.40813,-0.17848 0.58002,-0.19456 0.53973,-0.0505 3.5977,-0.75883 3.80976,-0.88247 0.11127,-0.0649 0.34295,-0.13064 0.51484,-0.14614 0.17188,-0.0155 0.63686,-0.10209 1.03328,-0.1924 l 0.72077,-0.16422 -0.91231,-0.26992 c -0.50178,-0.14846 -0.98189,-0.22693 -1.06692,-0.17437 -0.085,0.0526 -0.21672,-0.005 -0.29264,-0.12778 -0.0759,-0.12284 -0.26469,-0.17473 -0.4195,-0.11532 -0.15481,0.0594 -0.33776,0.0169 -0.40656,-0.0944 -0.0688,-0.11133 -0.23394,-0.18533 -0.36698,-0.16446 -0.13304,0.0209 -0.38089,-0.0194 -0.55079,-0.0895 -0.39637,-0.16354 -3.71068,-1.01303 -4.12228,-1.05657 -0.17189,-0.0182 -0.4329,-0.10747 -0.58002,-0.19839 -0.14713,-0.0909 -0.32231,-0.11052 -0.3893,-0.0435 -0.067,0.067 -0.23641,0.0267 -0.37649,-0.0896 -0.14008,-0.11626 -0.33394,-0.19341 -0.43081,-0.17146 -0.0969,0.022 -0.31513,-0.0175 -0.48503,-0.0878 -0.39563,-0.16351 -3.70989,-1.01315 -4.12228,-1.05678 -0.17189,-0.0182 -0.4329,-0.10747 -0.58002,-0.19839 -0.14712,-0.0909 -0.32231,-0.11052 -0.3893,-0.0435 -0.067,0.067 -0.23641,0.0267 -0.37649,-0.0896 -0.14008,-0.11626 -0.33394,-0.19341 -0.43081,-0.17145 -0.0969,0.022 -0.31513,-0.0154 -0.48503,-0.0831 -0.4985,-0.19854 -3.55753,-0.99876 -4.11866,-1.07742 -0.28316,-0.0397 -0.56117,-0.0927 -0.6178,-0.11773 -0.0566,-0.0251 -0.19564,-0.0636 -0.3089,-0.0856 -0.11326,-0.022 -0.34494,-0.0958 -0.51484,-0.16389 -0.45194,-0.18123 -4.56278,-1.23739 -5.04536,-1.29626 -0.22653,-0.0276 -0.4582,-0.0721 -0.51483,-0.0988 -0.0566,-0.0267 -0.19564,-0.0665 -0.3089,-0.0885 -0.11326,-0.022 -0.34494,-0.097 -0.51484,-0.16657 -0.40219,-0.16477 -3.68808,-1.00558 -4.22163,-1.08024 -0.22652,-0.0317 -0.4582,-0.0795 -0.51483,-0.10617 -0.0566,-0.0267 -0.19564,-0.0619 -0.3089,-0.0782 -0.44908,-0.0646 -1.17687,-0.57755 -0.99608,-0.70201 0.36743,-0.25296 1.08607,-1.41521 0.95567,-1.54561 -0.0722,-0.0722 -0.0231,-0.13121 0.10905,-0.13121 0.13215,0 0.24026,-0.139 0.24026,-0.3089 0,-0.16989 0.0727,-0.3089 0.16153,-0.3089 0.1976,0 0.98111,-1.27796 0.91536,-1.49301 -0.026,-0.0849 0.0454,-0.15445 0.1587,-0.15445 0.11326,0 0.20594,-0.13901 0.20594,-0.3089 0,-0.1699 0.0781,-0.3089 0.1735,-0.3089 0.0954,0 0.35027,-0.34498 0.56632,-0.76663 0.21605,-0.42165 0.5427,-0.93562 0.7259,-1.14217 0.1832,-0.20654 0.50755,-0.71876 0.72077,-1.13825 0.21322,-0.4195 0.44638,-0.80905 0.51812,-0.86568 0.0717,-0.0566 2.79521,-4.31945 6.05214,-9.47293 3.25694,-5.15348 6.06271,-9.5327 6.23506,-9.73161 0.17235,-0.1989 0.27532,-0.39652 0.22882,-0.43914 -0.0899,-0.0825 -11.8857,6.09343 -12.2346,6.40565 -0.11326,0.10136 -0.25227,0.18944 -0.3089,0.19575 -0.29311,0.0326 -3.20195,1.58699 -3.26104,1.74257 -0.038,0.10003 -0.15382,0.1295 -0.25741,0.0655 -0.10359,-0.064 -0.18835,-0.0183 -0.18835,0.10169 0,0.11995 -0.0695,0.19968 -0.15445,0.17718 -0.22157,-0.0587 -2.81809,1.2925 -2.90065,1.50944 -0.038,0.0998 -0.15383,0.12911 -0.25742,0.0651 -0.10359,-0.064 -0.18834,-0.003 -0.18834,0.13601 0,0.13883 -0.0539,0.19854 -0.11973,0.1327 -0.13437,-0.13438 -3.23945,1.47997 -3.34725,1.74026 -0.038,0.0917 -0.15383,0.1144 -0.25742,0.0504 -0.10358,-0.064 -0.18834,-0.0183 -0.18834,0.10168 0,0.11996 -0.0695,0.19978 -0.15445,0.1774 -0.22276,-0.0587 -3.23027,1.49819 -3.31252,1.71478 -0.038,0.10003 -0.15383,0.1295 -0.25742,0.0655 -0.10358,-0.064 -0.18834,-0.0183 -0.18834,0.10168 0,0.11995 -0.0695,0.19968 -0.15445,0.17719 -0.22608,-0.0599 -2.80522,1.28939 -2.98288,1.56048 -0.0855,0.13042 -0.15404,0.14127 -0.1576,0.0249 -0.004,-0.11326 -0.0922,-0.0701 -0.19727,0.096 -0.1522,0.24065 -0.24105,0.17798 -0.43784,-0.3089 -0.13579,-0.33596 -0.26479,-0.74983 -0.28666,-0.91973 -0.0466,-0.36199 -0.68795,-2.63964 -0.86979,-3.08899 -0.0688,-0.1699 -0.1366,-0.40157 -0.15076,-0.51484 -0.0571,-0.45602 -0.3791,-1.66026 -0.49566,-1.8534 -0.0684,-0.11326 -0.1512,-0.39127 -0.18411,-0.6178 -0.0329,-0.22652 -0.11931,-0.55087 -0.19199,-0.72076 -0.0727,-0.1699 -0.14571,-0.40157 -0.16229,-0.51484 -0.12491,-0.85336 -0.39634,-1.77419 -0.5512,-1.8699 -0.10227,-0.0632 -0.13922,-0.19054 -0.0821,-0.28297 0.0911,-0.14741 -0.0899,-0.88844 -0.45512,-1.86282 -0.0637,-0.1699 -0.14926,-0.49424 -0.19019,-0.72077 -0.0409,-0.22653 -0.1339,-0.55087 -0.20657,-0.72077 -0.0727,-0.16989 -0.14572,-0.40157 -0.1623,-0.51483 -0.12491,-0.85337 -0.39634,-1.77419 -0.5512,-1.8699 -0.10227,-0.0632 -0.13744,-0.19341 -0.0782,-0.28935 0.0593,-0.0959 2e-5,-0.43704 -0.13172,-0.75802 -0.13174,-0.32097 -0.25729,-0.67626 -0.27901,-0.78953 -0.0217,-0.11326 -0.0612,-0.25227 -0.0878,-0.3089 -0.0266,-0.0566 -0.093,-0.37866 -0.14759,-0.71563 -0.0546,-0.33697 -0.18518,-0.71617 -0.29018,-0.84268 -0.10498,-0.12651 -0.14277,-0.27814 -0.084,-0.33696 0.0588,-0.0588 -0.003,-0.37464 -0.13686,-0.70182 -0.13409,-0.32718 -0.26158,-0.68754 -0.2833,-0.80081 -0.0217,-0.11326 -0.0605,-0.25227 -0.0861,-0.3089 -0.0257,-0.0566 -0.0872,-0.33464 -0.13673,-0.6178 -0.0495,-0.28315 -0.14952,-0.65384 -0.2222,-0.82373 -0.0727,-0.1699 -0.15016,-0.40157 -0.17217,-0.51483 -0.022,-0.11326 -0.0618,-0.25227 -0.0883,-0.3089 -0.0266,-0.0566 -0.093,-0.37867 -0.14758,-0.71564 -0.0546,-0.33696 -0.18519,-0.71617 -0.29019,-0.84268 -0.10498,-0.1265 -0.14276,-0.27813 -0.0839,-0.33695 0.0588,-0.0588 -0.003,-0.37464 -0.13687,-0.70182 -0.13409,-0.32718 -0.26157,-0.68755 -0.28329,-0.80081 -0.0217,-0.11326 -0.0612,-0.25227 -0.0878,-0.3089 -0.0266,-0.0566 -0.093,-0.37867 -0.14758,-0.71563 -0.0546,-0.33697 -0.18519,-0.71618 -0.29018,-0.84269 -0.10499,-0.1265 -0.14939,-0.27151 -0.0987,-0.32224 0.0507,-0.0507 -0.0332,-0.50555 -0.18649,-1.01072 -0.17071,-0.56254 -0.32295,-0.79877 -0.39283,-0.60959 -0.23658,0.64038 -5.14164,17.20906 -5.18207,17.50433 -0.0232,0.1699 -0.14442,0.56018 -0.26924,0.86731 -0.12483,0.30712 -0.26246,0.77047 -0.30584,1.02966 -0.0434,0.2592 -0.18238,0.72255 -0.3089,1.02967 -0.12651,0.30712 -0.26552,0.77047 -0.3089,1.02967 -0.0434,0.25919 -0.18238,0.72254 -0.3089,1.02966 -0.12651,0.30712 -0.26552,0.77047 -0.3089,1.02967 -0.0434,0.25919 -0.18495,0.72931 -0.31462,1.04472 -0.12967,0.3154 -0.22186,0.63975 -0.20488,0.72076 0.017,0.081 -0.0845,0.42532 -0.22547,0.76511 -0.141,0.33979 -0.28247,0.80314 -0.31439,1.02967 -0.0319,0.22652 -0.15955,0.66315 -0.28363,0.97027 -0.12408,0.30712 -0.26109,0.77047 -0.30447,1.02966 -0.0434,0.2592 -0.188,0.73731 -0.32137,1.06247 -0.13338,0.32517 -0.26166,0.8227 -0.28508,1.10563 -0.0616,0.7446 -0.38744,0.77051 -1.62679,0.1294 -0.6061,-0.31353 -1.1715,-0.55152 -1.25645,-0.52887 -0.085,0.0226 -0.15445,-0.0374 -0.15445,-0.13346 0,-0.096 -0.39384,-0.34834 -0.87521,-0.56063 -0.48137,-0.21229 -0.92155,-0.44559 -0.97819,-0.51845 -0.15815,-0.20347 -1.94848,-1.08337 -2.01535,-0.99049 -0.0325,0.0451 -0.12512,-0.0187 -0.20594,-0.1417 -0.18468,-0.28108 -3.79892,-2.25851 -4.00818,-2.19297 -0.085,0.0266 -0.15446,-0.0302 -0.15446,-0.12628 0,-0.096 -0.39385,-0.34835 -0.87521,-0.56064 -0.48138,-0.21228 -0.92155,-0.44558 -0.97818,-0.51844 -0.15816,-0.20347 -1.94849,-1.08337 -2.01537,-0.9905 -0.0325,0.0451 -0.12516,-0.021 -0.20593,-0.14675 -0.17017,-0.26484 -1.30526,-0.87566 -1.5445,-0.83113 -0.089,0.0166 -0.22808,-0.0733 -0.3089,-0.1996 -0.16702,-0.26115 -1.96913,-1.21306 -2.05933,-1.08778 -0.0325,0.0451 -0.12516,-0.021 -0.20594,-0.14675 -0.17017,-0.26485 -1.30526,-0.87567 -1.54449,-0.83113 -0.089,0.0166 -0.22809,-0.0732 -0.3089,-0.19961 -0.16702,-0.26115 -1.96913,-1.21306 -2.05933,-1.08778 -0.0325,0.0451 -0.12516,-0.021 -0.20594,-0.14675 -0.17633,-0.27443 -1.52422,-1.00624 -1.74291,-0.94629 -0.085,0.0233 -0.15446,-0.0558 -0.15446,-0.17574 0,-0.11996 -0.0927,-0.16082 -0.20593,-0.0908 -0.11326,0.07 -0.20594,0.0463 -0.20594,-0.0527 0,-0.1854 -1.49806,-0.97369 -1.60349,-0.84377 -0.0325,0.04 -0.12516,-0.0302 -0.20593,-0.15598 -0.17018,-0.26484 -1.30527,-0.87566 -1.5445,-0.83113 -0.089,0.0166 -0.22809,-0.0647 -0.3089,-0.18054 -0.1506,-0.21594 -1.19075,-0.92194 -1.35831,-0.92194 -0.0512,0 3.88394,6.54689 8.74492,14.54864 4.86098,8.00176 8.83814,14.62198 8.83814,14.71161 0,0.0896 -0.41815,0.22567 -0.92924,0.30231 -0.51107,0.0766 -0.98082,0.22283 -1.04388,0.32487 -0.0631,0.10205 -0.20094,0.13222 -0.30637,0.067 -0.10542,-0.0652 -0.30592,-0.0479 -0.4455,0.0384 -0.13958,0.0863 -0.39443,0.16797 -0.56632,0.18154 -0.3934,0.0311 -3.29594,0.70939 -3.71042,0.86712 -0.16989,0.0647 -0.40157,0.13557 -0.51483,0.15758 -0.11326,0.022 -0.25226,0.0619 -0.30891,0.0885 -0.0567,0.0267 -0.2883,0.0727 -0.51482,0.10234 -0.97333,0.12717 -3.72577,0.80362 -3.93169,0.96626 -0.12362,0.0977 -0.27969,0.12281 -0.34668,0.0558 -0.0669,-0.067 -0.24217,-0.0474 -0.3893,0.0435 -0.14712,0.0909 -0.40812,0.17849 -0.58002,0.19457 -0.73551,0.0688 -3.62664,0.77924 -3.83233,0.94169 -0.12362,0.0977 -0.27969,0.12281 -0.34668,0.0558 -0.0669,-0.067 -0.24217,-0.0474 -0.3893,0.0435 -0.14712,0.0909 -0.40812,0.17849 -0.58002,0.19457 -0.73551,0.0688 -3.62664,0.77924 -3.83233,0.94169 -0.12362,0.0977 -0.27969,0.12281 -0.34668,0.0558 -0.0669,-0.067 -0.24217,-0.0474 -0.3893,0.0435 -0.14712,0.0909 -0.40813,0.17849 -0.58002,0.19457 -0.73551,0.0688 -3.62664,0.77924 -3.83233,0.94169 -0.12362,0.0977 -0.27969,0.12281 -0.34668,0.0558 -0.0669,-0.067 -0.24217,-0.0474 -0.3893,0.0435 -0.14712,0.0909 -0.40813,0.17703 -0.58002,0.19133 -0.17188,0.0143 -1.41704,0.28426 -2.767,0.59991 -1.88969,0.44184 -2.37184,0.62014 -2.09536,0.77487 0.19751,0.11053 0.41314,0.14694 0.47916,0.0809 0.0661,-0.066 0.24667,-0.015 0.40141,0.11344 0.15473,0.12842 0.34007,0.17475 0.41186,0.10297 0.0718,-0.0718 0.23172,-0.0508 0.35541,0.0466 0.19551,0.15403 1.7916,0.58955 2.6197,0.71482 0.15526,0.0235 0.39815,0.11507 0.53972,0.20352 0.14158,0.0885 0.34368,0.10749 0.44912,0.0423 0.10542,-0.0652 0.25382,-0.018 0.32974,0.10485 0.0759,0.12283 0.26468,0.17472 0.4195,0.11531 0.15481,-0.0594 0.33776,-0.0169 0.40656,0.0944 0.0689,0.11133 0.23394,0.18533 0.36698,0.16446 0.133,-0.0209 0.3809,0.0191 0.55079,0.0888 0.4071,0.167 2.89914,0.81075 3.29855,0.8521 0.17189,0.0178 0.42673,0.10294 0.56631,0.18921 0.13958,0.0863 0.34006,0.10354 0.44551,0.0384 0.10542,-0.0652 0.25381,-0.018 0.32973,0.10484 0.0759,0.12284 0.26468,0.17473 0.41949,0.11532 0.15482,-0.0594 0.33777,-0.0169 0.40656,0.0944 0.0689,0.11133 0.23394,0.18533 0.36699,0.16446 0.133,-0.0209 0.38089,0.0191 0.55078,0.0888 0.40711,0.16699 2.89915,0.81075 3.29856,0.85209 0.17189,0.0178 0.42673,0.10294 0.56631,0.18921 0.13958,0.0863 0.34007,0.10355 0.44551,0.0384 0.10542,-0.0652 0.2538,-0.018 0.32973,0.10485 0.0759,0.12283 0.26468,0.17472 0.41949,0.11532 0.15481,-0.0594 0.34016,-0.013 0.41187,0.10297 0.0717,0.11603 0.25705,0.16237 0.41186,0.10297 0.15482,-0.0594 0.32808,-0.0326 0.38502,0.0595 0.0792,0.12825 2.17875,0.68326 2.79272,0.73827 0.0567,0.005 0.2188,0.0828 0.36039,0.17267 0.14158,0.0899 0.34368,0.11014 0.44912,0.045 0.10542,-0.0652 0.2538,-0.018 0.32972,0.10485 0.0759,0.12284 0.26469,0.17473 0.4195,0.11532 0.15481,-0.0594 0.34016,-0.013 0.41186,0.10297 0.0717,0.11603 0.25706,0.16237 0.41187,0.10297 0.15481,-0.0594 0.34016,-0.013 0.41187,0.10297 0.0717,0.11603 0.25705,0.16237 0.41186,0.10297 0.15481,-0.0594 0.32808,-0.0326 0.38502,0.0595 0.0792,0.12825 2.17875,0.68326 2.79272,0.73827 0.0567,0.005 0.2188,0.0828 0.36038,0.17268 0.14159,0.0899 0.34369,0.11013 0.44912,0.045 0.10542,-0.0652 0.25382,-0.018 0.32973,0.10484 0.0759,0.12284 0.26469,0.17473 0.4195,0.11532 0.15481,-0.0594 0.34015,-0.013 0.41188,0.10297 0.0717,0.11603 0.25705,0.16237 0.41186,0.10297 0.1548,-0.0594 0.33777,-0.0169 0.40656,0.0944 0.0687,0.11133 0.23394,0.18533 0.36698,0.16446 0.133,-0.0209 0.38089,0.0157 0.55079,0.0812 0.16989,0.0655 0.56387,0.19602 0.87549,0.28999 l 0.56658,0.17086 -3.5243,5.5601 c -1.93837,3.05806 -3.57662,5.69911 -3.64057,5.86901 -0.064,0.16989 -0.17381,0.35523 -0.24416,0.41186 -0.3468,0.27917 -1.00644,1.40122 -0.8914,1.51627 0.0721,0.0722 0.0231,0.1312 -0.10906,0.1312 -0.13216,0 -0.24027,0.0965 -0.24027,0.21455 0,0.11799 -0.18891,0.41733 -0.41983,0.66518 -0.2309,0.24785 -0.47262,0.661 -0.53715,0.91809 -0.0645,0.2571 -0.19995,0.46745 -0.30093,0.46745 -0.10094,0 -0.18361,0.0965 -0.18361,0.21454 0,0.11801 -0.18214,0.41005 -0.40475,0.64899 -0.2226,0.23894 -0.35615,0.51308 -0.29675,0.60919 0.0594,0.0961 0.01,0.17474 -0.11004,0.17474 -0.11998,0 -0.21809,0.13901 -0.21809,0.3089 0,0.1699 -0.0727,0.3089 -0.16153,0.3089 -0.1976,0 -0.98111,1.27797 -0.91536,1.49302 0.026,0.0849 -0.0455,0.15445 -0.15871,0.15445 -0.11326,0 -0.20594,0.0965 -0.20594,0.21454 0,0.11801 -0.18891,0.41734 -0.41983,0.66519 -0.2309,0.24785 -0.47262,0.66099 -0.53715,0.91809 -0.0645,0.25709 -0.19995,0.46744 -0.30093,0.46744 -0.10094,0 -0.18361,0.0965 -0.18361,0.21455 0,0.118 -0.18214,0.41004 -0.40475,0.64899 -0.2226,0.23894 -0.35615,0.51307 -0.29675,0.60918 0.0594,0.0961 0.01,0.17475 -0.11004,0.17475 -0.11998,0 -0.21809,0.13901 -0.21809,0.3089 0,0.1699 -0.0927,0.3089 -0.20593,0.3089 -0.11326,0 -0.20594,0.0965 -0.20594,0.21454 0,0.11801 -0.18214,0.41005 -0.40474,0.64899 -0.22261,0.23894 -0.35614,0.51308 -0.29674,0.60919 0.0594,0.0961 0.01,0.17475 -0.11004,0.17475 -0.11998,0 -0.21808,0.13127 -0.21808,0.29174 0,0.16045 -0.0749,0.32262 -0.16644,0.36038 -0.18504,0.0763 -1.54937,2.02501 -1.41775,2.02501 0.0456,0 7.11272,-3.70645 15.70455,-8.23654 16.84601,-8.88218 15.89914,-8.4702 16.10617,-7.00765 0.0397,0.28033 0.15806,0.6132 0.26305,0.73971 0.10499,0.12651 0.14277,0.27814 0.084,0.33696 -0.0588,0.0588 0.003,0.37463 0.13686,0.70181 0.13409,0.32719 0.26158,0.68755 0.2833,0.80081 0.0217,0.11326 0.0605,0.25227 0.0861,0.3089 0.0257,0.0566 0.0872,0.33465 0.13673,0.6178 0.0495,0.28316 0.14952,0.65384 0.22221,0.82374 0.0727,0.16989 0.14571,0.40157 0.16229,0.51483 0.12491,0.85337 0.39634,1.77419 0.5512,1.8699 0.10227,0.0632 0.13744,0.19341 0.0781,0.28935 -0.0593,0.0959 -2e-5,0.43704 0.13172,0.75802 0.13174,0.32098 0.25729,0.67626 0.27901,0.78953 0.0217,0.11326 0.0605,0.25227 0.0862,0.3089 0.0257,0.0566 0.0872,0.33464 0.13672,0.6178 0.0495,0.28316 0.14953,0.65384 0.22221,0.82373 0.0727,0.1699 0.14374,0.40157 0.15791,0.51483 0.0571,0.45603 0.3791,1.66026 0.49566,1.8534 0.0683,0.11326 0.1512,0.39128 0.18411,0.6178 0.0329,0.22653 0.11931,0.55087 0.19198,0.72077 0.0727,0.16989 0.14572,0.40157 0.1623,0.51483 0.1249,0.85337 0.39633,1.77419 0.5512,1.8699 0.10227,0.0632 0.13921,0.19055 0.0821,0.28297 -0.0911,0.14741 0.0899,0.88844 0.45512,1.86283 0.0637,0.16989 0.14926,0.49424 0.19019,0.72077 0.0409,0.22652 0.1339,0.55087 0.20657,0.72076 0.0727,0.1699 0.14375,0.40157 0.15792,0.51484 0.0787,0.62875 0.39809,1.68171 0.57787,1.90488 0.11404,0.14158 0.15559,0.25741 0.0923,0.25741 -0.1071,0 0.54185,2.60565 0.82062,3.29494 0.0687,0.16989 0.14486,0.4479 0.16921,0.61779 0.0971,0.67765 1.00573,3.8212 1.15356,3.99104 0.0868,0.0997 0.22957,-0.17831 0.31731,-0.6178 l 0,0 z" style="fill:#ffe680;fill-opacity:1;fill-rule:evenodd;stroke:#d4aa00;stroke-width:1.86059952;stroke-linejoin:round;stroke-miterlimit:4;stroke-opacity:1;stroke-dasharray:none;stroke-dashoffset:0"/>
        <path style="fill:#ffe680;fill-opacity:1;fill-rule:evenodd;stroke:#d4aa00;stroke-width:1.86059952;stroke-linejoin:round;stroke-miterlimit:4;stroke-opacity:1;stroke-dasharray:none;stroke-dashoffset:0" d="m -464.52776,-8.9153101 c 0.20222,-1.01291 0.17203,-0.90711 0.4504,-1.5784599 0.13077,-0.31541 0.22787,-0.63975 0.21577,-0.72077 -0.0122,-0.081 6.2e-4,-0.21681 0.0281,-0.30176 0.0276,-0.0849 0.0695,-0.22395 0.0931,-0.3089 0.0236,-0.0849 0.15,-0.4125 0.28078,-0.72791 0.13078,-0.3154 0.22389,-0.63974 0.20691,-0.72076 -0.017,-0.081 0.0731,-0.39859 0.20021,-0.70572 0.12709,-0.30712 0.26657,-0.77047 0.30995,-1.02966 0.0434,-0.2592 0.18239,-0.72254 0.3089,-1.02967 0.12652,-0.30712 0.25919,-0.77047 0.29483,-1.02966 0.0357,-0.2592 0.11986,-0.56393 0.18715,-0.6772 0.13656,-0.22985 1.35696,-4.3159 1.47825,-4.94934 0.0426,-0.22271 0.13798,-0.54393 0.21185,-0.71382 0.0739,-0.1699 1.23843,-4.0157 2.58788,-8.54623 1.8446,-6.19289 2.52972,-8.23103 2.76046,-8.21193 0.27894,0.0231 26.92365,14.57249 29.23058,15.96143 0.5397,0.32494 1.03147,0.5908 1.09282,0.5908 0.14385,0 -0.80862,-1.59922 -1.28118,-2.15113 -0.19922,-0.23267 -0.34253,-0.46937 -0.31847,-0.52601 0.0241,-0.0566 -0.096,-0.26619 -0.26683,-0.4657 -0.17082,-0.19951 -0.31058,-0.41862 -0.31058,-0.48691 0,-0.23182 -2.51735,-4.29781 -2.75239,-4.44562 -0.1285,-0.0808 -0.20972,-0.21982 -0.18048,-0.3089 0.0292,-0.0891 -0.0634,-0.30097 -0.20593,-0.47086 -0.14251,-0.1699 -0.36681,-0.54058 -0.49846,-0.82374 -0.13164,-0.28315 -2.83313,-4.77409 -6.00331,-9.97985 -5.04351,-8.28199 -5.72251,-9.49533 -5.43243,-9.70744 0.18233,-0.13332 0.44186,-0.20007 0.57673,-0.14831 0.13486,0.0518 0.30389,-8.3e-4 0.3756,-0.11689 0.0717,-0.11605 0.25706,-0.16237 0.41187,-0.10297 0.15481,0.0594 0.34359,0.008 0.4195,-0.11532 0.0759,-0.12283 0.22429,-0.17001 0.32973,-0.10484 0.10544,0.0652 0.30754,0.046 0.44912,-0.0427 0.14158,-0.0886 0.35009,-0.16798 0.46335,-0.17631 0.78077,-0.0574 2.18578,-0.38196 2.27439,-0.52534 0.0589,-0.0953 0.2337,-0.12457 0.38851,-0.0652 0.15481,0.0594 0.34015,0.013 0.41186,-0.10297 0.0717,-0.11603 0.25706,-0.16237 0.41187,-0.10297 0.15481,0.0594 0.34359,0.008 0.4195,-0.11532 0.0759,-0.12284 0.2243,-0.17002 0.32973,-0.10485 0.10544,0.0652 0.30754,0.046 0.44912,-0.0427 0.14158,-0.0886 0.35009,-0.16797 0.46335,-0.1763 0.78077,-0.0574 2.18578,-0.38196 2.27439,-0.52534 0.0589,-0.0953 0.2337,-0.12457 0.38851,-0.0652 0.15481,0.0594 0.34015,0.013 0.41186,-0.10297 0.0717,-0.11603 0.25706,-0.16237 0.41187,-0.10297 0.15481,0.0594 0.34359,0.008 0.4195,-0.11532 0.0759,-0.12284 0.2243,-0.17002 0.32973,-0.10485 0.10544,0.0652 0.30754,0.046 0.44912,-0.0427 0.14158,-0.0886 0.35009,-0.16797 0.46335,-0.1763 0.78077,-0.0574 2.18578,-0.38197 2.2744,-0.52534 0.0589,-0.0952 0.23369,-0.12458 0.3885,-0.0652 0.15481,0.0594 0.34015,0.013 0.41187,-0.10297 0.0717,-0.11605 0.25705,-0.16238 0.41186,-0.10297 0.15481,0.0594 0.34359,0.008 0.4195,-0.11532 0.0759,-0.12284 0.2243,-0.17002 0.32973,-0.10485 0.10544,0.0652 0.30592,0.0479 0.4455,-0.0384 0.1396,-0.0863 0.39443,-0.17007 0.56632,-0.18622 0.77113,-0.0725 2.80519,-0.56696 3.0086,-0.73143 0.12369,-0.1 0.27969,-0.12702 0.34668,-0.06 0.067,0.067 0.24218,0.0474 0.3893,-0.0435 0.14712,-0.0909 0.40813,-0.17848 0.58002,-0.19456 0.73552,-0.0688 3.62665,-0.77924 3.83233,-0.9417 0.12369,-0.0977 0.27969,-0.1228 0.34668,-0.0558 0.067,0.067 0.24218,0.0474 0.3893,-0.0435 0.14712,-0.0909 0.40813,-0.17848 0.58002,-0.19456 0.53973,-0.0505 3.5977,-0.75883 3.80976,-0.88247 0.11127,-0.0649 0.34295,-0.13064 0.51484,-0.14614 0.17188,-0.0155 0.63686,-0.10209 1.03328,-0.1924 l 0.72077,-0.16422 -0.91231,-0.26992 c -0.50178,-0.14846 -0.98189,-0.22693 -1.06692,-0.17437 -0.085,0.0526 -0.21672,-0.005 -0.29264,-0.12778 -0.0759,-0.12284 -0.26469,-0.17473 -0.4195,-0.11532 -0.15481,0.0594 -0.33776,0.0169 -0.40656,-0.0944 -0.0688,-0.11133 -0.23394,-0.18533 -0.36698,-0.16446 -0.13304,0.0209 -0.38089,-0.0194 -0.55079,-0.0895 -0.39637,-0.16354 -3.71068,-1.01303 -4.12228,-1.05657 -0.17189,-0.0182 -0.4329,-0.10747 -0.58002,-0.19839 -0.14713,-0.0909 -0.32231,-0.11052 -0.3893,-0.0435 -0.067,0.067 -0.23641,0.0267 -0.37649,-0.0896 -0.14008,-0.11626 -0.33394,-0.19341 -0.43081,-0.17146 -0.0969,0.022 -0.31513,-0.0175 -0.48503,-0.0878 -0.39563,-0.16351 -3.70989,-1.01315 -4.12228,-1.05678 -0.17189,-0.0182 -0.4329,-0.10747 -0.58002,-0.19839 -0.14712,-0.0909 -0.32231,-0.11052 -0.3893,-0.0435 -0.067,0.067 -0.23641,0.0267 -0.37649,-0.0896 -0.14008,-0.11626 -0.33394,-0.19341 -0.43081,-0.17145 -0.0969,0.022 -0.31513,-0.0154 -0.48503,-0.0831 -0.4985,-0.19854 -3.55753,-0.99876 -4.11866,-1.07742 -0.28316,-0.0397 -0.56117,-0.0927 -0.6178,-0.11773 -0.0566,-0.0251 -0.19564,-0.0636 -0.3089,-0.0856 -0.11326,-0.022 -0.34494,-0.0958 -0.51484,-0.16389 -0.45194,-0.18123 -4.56278,-1.23739 -5.04536,-1.29626 -0.22653,-0.0276 -0.4582,-0.0721 -0.51483,-0.0988 -0.0566,-0.0267 -0.19564,-0.0665 -0.3089,-0.0885 -0.11326,-0.022 -0.34494,-0.097 -0.51484,-0.16657 -0.40219,-0.16477 -3.68808,-1.00558 -4.22163,-1.08024 -0.22652,-0.0317 -0.4582,-0.0795 -0.51483,-0.10617 -0.0566,-0.0267 -0.19564,-0.0619 -0.3089,-0.0782 -0.44908,-0.0646 -1.17687,-0.57755 -0.99608,-0.70201 0.36743,-0.25296 1.08607,-1.41521 0.95567,-1.54561 -0.0722,-0.0722 -0.0231,-0.13121 0.10905,-0.13121 0.13215,0 0.24026,-0.139 0.24026,-0.3089 0,-0.16989 0.0727,-0.3089 0.16153,-0.3089 0.1976,0 0.98111,-1.27796 0.91536,-1.49301 -0.026,-0.0849 0.0454,-0.15445 0.1587,-0.15445 0.11326,0 0.20594,-0.13901 0.20594,-0.3089 0,-0.1699 0.0781,-0.3089 0.1735,-0.3089 0.0954,0 0.35027,-0.34498 0.56632,-0.76663 0.21605,-0.42165 0.5427,-0.93562 0.7259,-1.14217 0.1832,-0.20654 0.50755,-0.71876 0.72077,-1.13825 0.21322,-0.4195 0.44638,-0.80905 0.51812,-0.86568 0.0717,-0.0566 2.79521,-4.31945 6.05214,-9.47293 3.25694,-5.15348 6.06271,-9.5327 6.23506,-9.73161 0.17235,-0.1989 0.27532,-0.39652 0.22882,-0.43914 -0.0899,-0.0825 -11.8857,6.09343 -12.2346,6.40565 -0.11326,0.10136 -0.25227,0.18944 -0.3089,0.19575 -0.29311,0.0326 -3.20195,1.58699 -3.26104,1.74257 -0.038,0.10003 -0.15382,0.1295 -0.25741,0.0655 -0.10359,-0.064 -0.18835,-0.0183 -0.18835,0.10169 0,0.11995 -0.0695,0.19968 -0.15445,0.17718 -0.22157,-0.0587 -2.81809,1.2925 -2.90065,1.50944 -0.038,0.0998 -0.15383,0.12911 -0.25742,0.0651 -0.10359,-0.064 -0.18834,-0.003 -0.18834,0.13601 0,0.13883 -0.0539,0.19854 -0.11973,0.1327 -0.13437,-0.13438 -3.23945,1.47997 -3.34725,1.74026 -0.038,0.0917 -0.15383,0.1144 -0.25742,0.0504 -0.10358,-0.064 -0.18834,-0.0183 -0.18834,0.10168 0,0.11996 -0.0695,0.19978 -0.15445,0.1774 -0.22276,-0.0587 -3.23027,1.49819 -3.31252,1.71478 -0.038,0.10003 -0.15383,0.1295 -0.25742,0.0655 -0.10358,-0.064 -0.18834,-0.0183 -0.18834,0.10168 0,0.11995 -0.0695,0.19968 -0.15445,0.17719 -0.22608,-0.0599 -2.80522,1.28939 -2.98288,1.56048 -0.0855,0.13042 -0.15404,0.14127 -0.1576,0.0249 -0.004,-0.11326 -0.0922,-0.0701 -0.19727,0.096 -0.1522,0.24065 -0.24105,0.17798 -0.43784,-0.3089 -0.13579,-0.33596 -0.26479,-0.74983 -0.28666,-0.91973 -0.0466,-0.36199 -0.68795,-2.63964 -0.86979,-3.08899 -0.0688,-0.1699 -0.1366,-0.40157 -0.15076,-0.51484 -0.0571,-0.45602 -0.3791,-1.66026 -0.49566,-1.8534 -0.0684,-0.11326 -0.1512,-0.39127 -0.18411,-0.6178 -0.0329,-0.22652 -0.11931,-0.55087 -0.19199,-0.72076 -0.0727,-0.1699 -0.14571,-0.40157 -0.16229,-0.51484 -0.12491,-0.85336 -0.39634,-1.77419 -0.5512,-1.8699 -0.10227,-0.0632 -0.13922,-0.19054 -0.0821,-0.28297 0.0911,-0.14741 -0.0899,-0.88844 -0.45512,-1.86282 -0.0637,-0.1699 -0.14926,-0.49424 -0.19019,-0.72077 -0.0409,-0.22653 -0.1339,-0.55087 -0.20657,-0.72077 -0.0727,-0.16989 -0.14572,-0.40157 -0.1623,-0.51483 -0.12491,-0.85337 -0.39634,-1.77419 -0.5512,-1.8699 -0.10227,-0.0632 -0.13744,-0.19341 -0.0782,-0.28935 0.0593,-0.0959 2e-5,-0.43704 -0.13172,-0.75802 -0.13174,-0.32097 -0.25729,-0.67626 -0.27901,-0.78953 -0.0217,-0.11326 -0.0612,-0.25227 -0.0878,-0.3089 -0.0266,-0.0566 -0.093,-0.37866 -0.14759,-0.71563 -0.0546,-0.33697 -0.18518,-0.71617 -0.29018,-0.84268 -0.10498,-0.12651 -0.14277,-0.27814 -0.084,-0.33696 0.0588,-0.0588 -0.003,-0.37464 -0.13686,-0.70182 -0.13409,-0.32718 -0.26158,-0.68754 -0.2833,-0.80081 -0.0217,-0.11326 -0.0605,-0.25227 -0.0861,-0.3089 -0.0257,-0.0566 -0.0872,-0.33464 -0.13673,-0.6178 -0.0495,-0.28315 -0.14952,-0.65384 -0.2222,-0.82373 -0.0727,-0.1699 -0.15016,-0.40157 -0.17217,-0.51483 -0.022,-0.11326 -0.0618,-0.25227 -0.0883,-0.3089 -0.0266,-0.0566 -0.093,-0.37867 -0.14758,-0.71564 -0.0546,-0.33696 -0.18519,-0.71617 -0.29019,-0.84268 -0.10498,-0.1265 -0.14276,-0.27813 -0.0839,-0.33695 0.0588,-0.0588 -0.003,-0.37464 -0.13687,-0.70182 -0.13409,-0.32718 -0.26157,-0.68755 -0.28329,-0.80081 -0.0217,-0.11326 -0.0612,-0.25227 -0.0878,-0.3089 -0.0266,-0.0566 -0.093,-0.37867 -0.14758,-0.71563 -0.0546,-0.33697 -0.18519,-0.71618 -0.29018,-0.84269 -0.10499,-0.1265 -0.14939,-0.27151 -0.0987,-0.32224 0.0507,-0.0507 -0.0332,-0.50555 -0.18649,-1.01072 -0.17071,-0.56254 -0.32295,-0.79877 -0.39283,-0.60959 -0.23658,0.64038 -5.14164,17.20906 -5.18207,17.50433 -0.0232,0.1699 -0.14442,0.56018 -0.26924,0.86731 -0.12483,0.30712 -0.26246,0.77047 -0.30584,1.02966 -0.0434,0.2592 -0.18238,0.72255 -0.3089,1.02967 -0.12651,0.30712 -0.26552,0.77047 -0.3089,1.02967 -0.0434,0.25919 -0.18238,0.72254 -0.3089,1.02966 -0.12651,0.30712 -0.26552,0.77047 -0.3089,1.02967 -0.0434,0.25919 -0.18495,0.72931 -0.31462,1.04472 -0.12967,0.3154 -0.22186,0.63975 -0.20488,0.72076 0.017,0.081 -0.0845,0.42532 -0.22547,0.76511 -0.141,0.33979 -0.28247,0.80314 -0.31439,1.02967 -0.0319,0.22652 -0.15955,0.66315 -0.28363,0.97027 -0.12408,0.30712 -0.26109,0.77047 -0.30447,1.02966 -0.0434,0.2592 -0.188,0.73731 -0.32137,1.06247 -0.13338,0.32517 -0.26166,0.8227 -0.28508,1.10563 -0.0616,0.7446 -0.38744,0.77051 -1.62679,0.1294 -0.6061,-0.31353 -1.1715,-0.55152 -1.25645,-0.52887 -0.085,0.0226 -0.15445,-0.0374 -0.15445,-0.13346 0,-0.096 -0.39384,-0.34834 -0.87521,-0.56063 -0.48137,-0.21229 -0.92155,-0.44559 -0.97819,-0.51845 -0.15815,-0.20347 -1.94848,-1.08337 -2.01535,-0.99049 -0.0325,0.0451 -0.12512,-0.0187 -0.20594,-0.1417 -0.18468,-0.28108 -3.79892,-2.25851 -4.00818,-2.19297 -0.085,0.0266 -0.15446,-0.0302 -0.15446,-0.12628 0,-0.096 -0.39385,-0.34835 -0.87521,-0.56064 -0.48138,-0.21228 -0.92155,-0.44558 -0.97818,-0.51844 -0.15816,-0.20347 -1.94849,-1.08337 -2.01537,-0.9905 -0.0325,0.0451 -0.12516,-0.021 -0.20593,-0.14675 -0.17017,-0.26484 -1.30526,-0.87566 -1.5445,-0.83113 -0.089,0.0166 -0.22808,-0.0733 -0.3089,-0.1996 -0.16702,-0.26115 -1.96913,-1.21306 -2.05933,-1.08778 -0.0325,0.0451 -0.12516,-0.021 -0.20594,-0.14675 -0.17017,-0.26485 -1.30526,-0.87567 -1.54449,-0.83113 -0.089,0.0166 -0.22809,-0.0732 -0.3089,-0.19961 -0.16702,-0.26115 -1.96913,-1.21306 -2.05933,-1.08778 -0.0325,0.0451 -0.12516,-0.021 -0.20594,-0.14675 -0.17633,-0.27443 -1.52422,-1.00624 -1.74291,-0.94629 -0.085,0.0233 -0.15446,-0.0558 -0.15446,-0.17574 0,-0.11996 -0.0927,-0.16082 -0.20593,-0.0908 -0.11326,0.07 -0.20594,0.0463 -0.20594,-0.0527 0,-0.1854 -1.49806,-0.97369 -1.60349,-0.84377 -0.0325,0.04 -0.12516,-0.0302 -0.20593,-0.15598 -0.17018,-0.26484 -1.30527,-0.87566 -1.5445,-0.83113 -0.089,0.0166 -0.22809,-0.0647 -0.3089,-0.18054 -0.1506,-0.21594 -1.19075,-0.92194 -1.35831,-0.92194 -0.0512,0 3.88394,6.54689 8.74492,14.54864 4.86098,8.00176 8.83814,14.62198 8.83814,14.71161 0,0.0896 -0.41815,0.22567 -0.92924,0.30231 -0.51107,0.0766 -0.98082,0.22283 -1.04388,0.32487 -0.0631,0.10205 -0.20094,0.13222 -0.30637,0.067 -0.10542,-0.0652 -0.30592,-0.0479 -0.4455,0.0384 -0.13958,0.0863 -0.39443,0.16797 -0.56632,0.18154 -0.3934,0.0311 -3.29594,0.70939 -3.71042,0.86712 -0.16989,0.0647 -0.40157,0.13557 -0.51483,0.15758 -0.11326,0.022 -0.25226,0.0619 -0.30891,0.0885 -0.0567,0.0267 -0.2883,0.0727 -0.51482,0.10234 -0.97333,0.12717 -3.72577,0.80362 -3.93169,0.96626 -0.12362,0.0977 -0.27969,0.12281 -0.34668,0.0558 -0.0669,-0.067 -0.24217,-0.0474 -0.3893,0.0435 -0.14712,0.0909 -0.40812,0.17849 -0.58002,0.19457 -0.73551,0.0688 -3.62664,0.77924 -3.83233,0.94169 -0.12362,0.0977 -0.27969,0.12281 -0.34668,0.0558 -0.0669,-0.067 -0.24217,-0.0474 -0.3893,0.0435 -0.14712,0.0909 -0.40812,0.17849 -0.58002,0.19457 -0.73551,0.0688 -3.62664,0.77924 -3.83233,0.94169 -0.12362,0.0977 -0.27969,0.12281 -0.34668,0.0558 -0.0669,-0.067 -0.24217,-0.0474 -0.3893,0.0435 -0.14712,0.0909 -0.40813,0.17849 -0.58002,0.19457 -0.73551,0.0688 -3.62664,0.77924 -3.83233,0.94169 -0.12362,0.0977 -0.27969,0.12281 -0.34668,0.0558 -0.0669,-0.067 -0.24217,-0.0474 -0.3893,0.0435 -0.14712,0.0909 -0.40813,0.17703 -0.58002,0.19133 -0.17188,0.0143 -1.41704,0.28426 -2.767,0.59991 -1.88969,0.44184 -2.37184,0.62014 -2.09536,0.77487 0.19751,0.11053 0.41314,0.14694 0.47916,0.0809 0.0661,-0.066 0.24667,-0.015 0.40141,0.11344 0.15473,0.12842 0.34007,0.17475 0.41186,0.10297 0.0718,-0.0718 0.23172,-0.0508 0.35541,0.0466 0.19551,0.15403 1.7916,0.58955 2.6197,0.71482 0.15526,0.0235 0.39815,0.11507 0.53972,0.20352 0.14158,0.0885 0.34368,0.10749 0.44912,0.0423 0.10542,-0.0652 0.25382,-0.018 0.32974,0.10485 0.0759,0.12283 0.26468,0.17472 0.4195,0.11531 0.15481,-0.0594 0.33776,-0.0169 0.40656,0.0944 0.0689,0.11133 0.23394,0.18533 0.36698,0.16446 0.133,-0.0209 0.3809,0.0191 0.55079,0.0888 0.4071,0.167 2.89914,0.81075 3.29855,0.8521 0.17189,0.0178 0.42673,0.10294 0.56631,0.18921 0.13958,0.0863 0.34006,0.10354 0.44551,0.0384 0.10542,-0.0652 0.25381,-0.018 0.32973,0.10484 0.0759,0.12284 0.26468,0.17473 0.41949,0.11532 0.15482,-0.0594 0.33777,-0.0169 0.40656,0.0944 0.0689,0.11133 0.23394,0.18533 0.36699,0.16446 0.133,-0.0209 0.38089,0.0191 0.55078,0.0888 0.40711,0.16699 2.89915,0.81075 3.29856,0.85209 0.17189,0.0178 0.42673,0.10294 0.56631,0.18921 0.13958,0.0863 0.34007,0.10355 0.44551,0.0384 0.10542,-0.0652 0.2538,-0.018 0.32973,0.10485 0.0759,0.12283 0.26468,0.17472 0.41949,0.11532 0.15481,-0.0594 0.34016,-0.013 0.41187,0.10297 0.0717,0.11603 0.25705,0.16237 0.41186,0.10297 0.15482,-0.0594 0.32808,-0.0326 0.38502,0.0595 0.0792,0.12825 2.17875,0.68326 2.79272,0.73827 0.0567,0.005 0.2188,0.0828 0.36039,0.17267 0.14158,0.0899 0.34368,0.11014 0.44912,0.045 0.10542,-0.0652 0.2538,-0.018 0.32972,0.10485 0.0759,0.12284 0.26469,0.17473 0.4195,0.11532 0.15481,-0.0594 0.34016,-0.013 0.41186,0.10297 0.0717,0.11603 0.25706,0.16237 0.41187,0.10297 0.15481,-0.0594 0.34016,-0.013 0.41187,0.10297 0.0717,0.11603 0.25705,0.16237 0.41186,0.10297 0.15481,-0.0594 0.32808,-0.0326 0.38502,0.0595 0.0792,0.12825 2.17875,0.68326 2.79272,0.73827 0.0567,0.005 0.2188,0.0828 0.36038,0.17268 0.14159,0.0899 0.34369,0.11013 0.44912,0.045 0.10542,-0.0652 0.25382,-0.018 0.32973,0.10484 0.0759,0.12284 0.26469,0.17473 0.4195,0.11532 0.15481,-0.0594 0.34015,-0.013 0.41188,0.10297 0.0717,0.11603 0.25705,0.16237 0.41186,0.10297 0.1548,-0.0594 0.33777,-0.0169 0.40656,0.0944 0.0687,0.11133 0.23394,0.18533 0.36698,0.16446 0.133,-0.0209 0.38089,0.0157 0.55079,0.0812 0.16989,0.0655 0.56387,0.19602 0.87549,0.28999 l 0.56658,0.17086 -3.5243,5.5601 c -1.93837,3.05806 -3.57662,5.69911 -3.64057,5.86901 -0.064,0.16989 -0.17381,0.35523 -0.24416,0.41186 -0.3468,0.27917 -1.00644,1.40122 -0.8914,1.51627 0.0721,0.0722 0.0231,0.1312 -0.10906,0.1312 -0.13216,0 -0.24027,0.0965 -0.24027,0.21455 0,0.11799 -0.18891,0.41733 -0.41983,0.66518 -0.2309,0.24785 -0.47262,0.661 -0.53715,0.91809 -0.0645,0.2571 -0.19995,0.46745 -0.30093,0.46745 -0.10094,0 -0.18361,0.0965 -0.18361,0.21454 0,0.11801 -0.18214,0.41005 -0.40475,0.64899 -0.2226,0.23894 -0.35615,0.51308 -0.29675,0.60919 0.0594,0.0961 0.01,0.17474 -0.11004,0.17474 -0.11998,0 -0.21809,0.13901 -0.21809,0.3089 0,0.1699 -0.0727,0.3089 -0.16153,0.3089 -0.1976,0 -0.98111,1.27797 -0.91536,1.49302 0.026,0.0849 -0.0455,0.15445 -0.15871,0.15445 -0.11326,0 -0.20594,0.0965 -0.20594,0.21454 0,0.11801 -0.18891,0.41734 -0.41983,0.66519 -0.2309,0.24785 -0.47262,0.66099 -0.53715,0.91809 -0.0645,0.25709 -0.19995,0.46744 -0.30093,0.46744 -0.10094,0 -0.18361,0.0965 -0.18361,0.21455 0,0.118 -0.18214,0.41004 -0.40475,0.64899 -0.2226,0.23894 -0.35615,0.51307 -0.29675,0.60918 0.0594,0.0961 0.01,0.17475 -0.11004,0.17475 -0.11998,0 -0.21809,0.13901 -0.21809,0.3089 0,0.1699 -0.0927,0.3089 -0.20593,0.3089 -0.11326,0 -0.20594,0.0965 -0.20594,0.21454 0,0.11801 -0.18214,0.41005 -0.40474,0.64899 -0.22261,0.23894 -0.35614,0.51308 -0.29674,0.60919 0.0594,0.0961 0.01,0.17475 -0.11004,0.17475 -0.11998,0 -0.21808,0.13127 -0.21808,0.29174 0,0.16045 -0.0749,0.32262 -0.16644,0.36038 -0.18504,0.0763 -1.54937,2.02501 -1.41775,2.02501 0.0456,0 7.11272,-3.70645 15.70455,-8.23654 16.84601,-8.88218 15.89914,-8.4702 16.10617,-7.00765 0.0397,0.28033 0.15806,0.6132 0.26305,0.73971 0.10499,0.12651 0.14277,0.27814 0.084,0.33696 -0.0588,0.0588 0.003,0.37463 0.13686,0.70181 0.13409,0.32719 0.26158,0.68755 0.2833,0.80081 0.0217,0.11326 0.0605,0.25227 0.0861,0.3089 0.0257,0.0566 0.0872,0.33465 0.13673,0.6178 0.0495,0.28316 0.14952,0.65384 0.22221,0.82374 0.0727,0.16989 0.14571,0.40157 0.16229,0.51483 0.12491,0.85337 0.39634,1.77419 0.5512,1.8699 0.10227,0.0632 0.13744,0.19341 0.0781,0.28935 -0.0593,0.0959 -2e-5,0.43704 0.13172,0.75802 0.13174,0.32098 0.25729,0.67626 0.27901,0.78953 0.0217,0.11326 0.0605,0.25227 0.0862,0.3089 0.0257,0.0566 0.0872,0.33464 0.13672,0.6178 0.0495,0.28316 0.14953,0.65384 0.22221,0.82373 0.0727,0.1699 0.14374,0.40157 0.15791,0.51483 0.0571,0.45603 0.3791,1.66026 0.49566,1.8534 0.0683,0.11326 0.1512,0.39128 0.18411,0.6178 0.0329,0.22653 0.11931,0.55087 0.19198,0.72077 0.0727,0.16989 0.14572,0.40157 0.1623,0.51483 0.1249,0.85337 0.39633,1.77419 0.5512,1.8699 0.10227,0.0632 0.13921,0.19055 0.0821,0.28297 -0.0911,0.14741 0.0899,0.88844 0.45512,1.86283 0.0637,0.16989 0.14926,0.49424 0.19019,0.72077 0.0409,0.22652 0.1339,0.55087 0.20657,0.72076 0.0727,0.1699 0.14375,0.40157 0.15792,0.51484 0.0787,0.62875 0.39809,1.68171 0.57787,1.90488 0.11404,0.14158 0.15559,0.25741 0.0923,0.25741 -0.1071,0 0.54185,2.60565 0.82062,3.29494 0.0687,0.16989 0.14486,0.4479 0.16921,0.61779 0.0971,0.67765 1.00573,3.8211999 1.15356,3.9910399 0.0868,0.0997 0.22957,-0.17831 0.31731,-0.6178 l 0,0 z" id="path5049" inkscape:connector-curvature="0"/>
      </g>
    </g>
  </g>
</svg>