{
    "asset" : {
        "generator" : "Khronos glTF Blender I/O v3.3.27",
        "version" : "2.0"
    },
    "scene" : 0,
    "scenes" : [
        {
            "name" : "Scene",
            "nodes" : [
                0,
                1,
                2,
                3,
                4,
                5
            ]
        }
    ],
    "nodes" : [
        {
            "mesh" : 0,
            "name" : "Crate",
            "translation" : [
                0.19358980655670166,
                0.8230935335159302,
                0
            ]
        },
        {
            "mesh" : 1,
            "name" : "Barrel",
            "translation" : [
                1.9034199714660645,
                1.2198240756988525,
                0
            ]
        },
        {
            "mesh" : 2,
            "name" : "CannonBall",
            "translation" : [
                -1.0160484313964844,
                0.2797119915485382,
                0
            ]
        },
        {
            "mesh" : 3,
            "name" : "BarrelSmall",
            "translation" : [
                3.1692230701446533,
                0.7313565015792847,
                0
            ]
        },
        {
            "mesh" : 4,
            "name" : "Crate._small",
            "translation" : [
                4.195126056671143,
                0.45563429594039917,
                0
            ]
        },
        {
            "mesh" : 5,
            "name" : "CannonBallSmall",
            "translation" : [
                -1.878589153289795,
                0.4306730628013611,
                0
            ]
        }
    ],
    "materials" : [
        {
            "doubleSided" : true,
            "name" : "Material",
            "pbrMetallicRoughness" : {
                "baseColorFactor" : [
                    0.800000011920929,
                    0.800000011920929,
                    0.800000011920929,
                    1
                ],
                "metallicFactor" : 0,
                "roughnessFactor" : 0.5
            }
        }
    ],
    "meshes" : [
        {
            "name" : "Crate",
            "primitives" : [
                {
                    "attributes" : {
                        "POSITION" : 0,
                        "NORMAL" : 1,
                        "TEXCOORD_0" : 2
                    },
                    "indices" : 3,
                    "material" : 0
                }
            ]
        },
        {
            "name" : "Barrel",
            "primitives" : [
                {
                    "attributes" : {
                        "POSITION" : 4,
                        "NORMAL" : 5,
                        "TEXCOORD_0" : 6
                    },
                    "indices" : 7
                }
            ]
        },
        {
            "name" : "CannonBall",
            "primitives" : [
                {
                    "attributes" : {
                        "POSITION" : 8,
                        "NORMAL" : 9,
                        "TEXCOORD_0" : 10
                    },
                    "indices" : 11
                }
            ]
        },
        {
            "name" : "BarrelSmall",
            "primitives" : [
                {
                    "attributes" : {
                        "POSITION" : 12,
                        "NORMAL" : 13,
                        "TEXCOORD_0" : 14
                    },
                    "indices" : 15
                }
            ]
        },
        {
            "name" : "CrateSmall",
            "primitives" : [
                {
                    "attributes" : {
                        "POSITION" : 16,
                        "NORMAL" : 17,
                        "TEXCOORD_0" : 18
                    },
                    "indices" : 19,
                    "material" : 0
                }
            ]
        },
        {
            "name" : "CannonBallSmall",
            "primitives" : [
                {
                    "attributes" : {
                        "POSITION" : 20,
                        "NORMAL" : 21,
                        "TEXCOORD_0" : 22
                    },
                    "indices" : 11
                }
            ]
        }
    ],
    "accessors" : [
        {
            "bufferView" : 0,
            "componentType" : 5126,
            "count" : 216,
            "max" : [
                0.8231173753738403,
                0.8231173753738403,
                0.8231173753738403
            ],
            "min" : [
                -0.8231173753738403,
                -0.8231173753738403,
                -0.8231173753738403
            ],
            "type" : "VEC3"
        },
        {
            "bufferView" : 1,
            "componentType" : 5126,
            "count" : 216,
            "type" : "VEC3"
        },
        {
            "bufferView" : 2,
            "componentType" : 5126,
            "count" : 216,
            "type" : "VEC2"
        },
        {
            "bufferView" : 3,
            "componentType" : 5123,
            "count" : 324,
            "type" : "SCALAR"
        },
        {
            "bufferView" : 4,
            "componentType" : 5126,
            "count" : 196,
            "max" : [
                0.7404831051826477,
                0.922548770904541,
                0.7404829859733582
            ],
            "min" : [
                -0.7404828667640686,
                -1.2198479175567627,
                -0.7404831051826477
            ],
            "type" : "VEC3"
        },
        {
            "bufferView" : 5,
            "componentType" : 5126,
            "count" : 196,
            "type" : "VEC3"
        },
        {
            "bufferView" : 6,
            "componentType" : 5126,
            "count" : 196,
            "type" : "VEC2"
        },
        {
            "bufferView" : 7,
            "componentType" : 5123,
            "count" : 756,
            "type" : "SCALAR"
        },
        {
            "bufferView" : 8,
            "componentType" : 5126,
            "count" : 151,
            "max" : [
                0.27736884355545044,
                0.27736884355545044,
                0.27736884355545044
            ],
            "min" : [
                -0.27736881375312805,
                -0.27736884355545044,
                -0.27736884355545044
            ],
            "type" : "VEC3"
        },
        {
            "bufferView" : 9,
            "componentType" : 5126,
            "count" : 151,
            "type" : "VEC3"
        },
        {
            "bufferView" : 10,
            "componentType" : 5126,
            "count" : 151,
            "type" : "VEC2"
        },
        {
            "bufferView" : 11,
            "componentType" : 5123,
            "count" : 672,
            "type" : "SCALAR"
        },
        {
            "bufferView" : 12,
            "componentType" : 5126,
            "count" : 196,
            "max" : [
                0.44397103786468506,
                0.5531321167945862,
                0.44397100806236267
            ],
            "min" : [
                -0.4439709484577179,
                -0.7313835620880127,
                -0.44397103786468506
            ],
            "type" : "VEC3"
        },
        {
            "bufferView" : 13,
            "componentType" : 5126,
            "count" : 196,
            "type" : "VEC3"
        },
        {
            "bufferView" : 14,
            "componentType" : 5126,
            "count" : 196,
            "type" : "VEC2"
        },
        {
            "bufferView" : 15,
            "componentType" : 5123,
            "count" : 756,
            "type" : "SCALAR"
        },
        {
            "bufferView" : 16,
            "componentType" : 5126,
            "count" : 216,
            "max" : [
                0.45565855503082275,
                0.45565855503082275,
                0.45565855503082275
            ],
            "min" : [
                -0.45565855503082275,
                -0.45565855503082275,
                -0.45565855503082275
            ],
            "type" : "VEC3"
        },
        {
            "bufferView" : 17,
            "componentType" : 5126,
            "count" : 216,
            "type" : "VEC3"
        },
        {
            "bufferView" : 18,
            "componentType" : 5126,
            "count" : 216,
            "type" : "VEC2"
        },
        {
            "bufferView" : 19,
            "componentType" : 5123,
            "count" : 324,
            "type" : "SCALAR"
        },
        {
            "bufferView" : 20,
            "componentType" : 5126,
            "count" : 151,
            "max" : [
                0.4300330877304077,
                0.4300330877304077,
                0.4300330877304077
            ],
            "min" : [
                -0.43003302812576294,
                -0.4300330877304077,
                -0.4300330877304077
            ],
            "type" : "VEC3"
        },
        {
            "bufferView" : 21,
            "componentType" : 5126,
            "count" : 151,
            "type" : "VEC3"
        },
        {
            "bufferView" : 22,
            "componentType" : 5126,
            "count" : 151,
            "type" : "VEC2"
        }
    ],
    "bufferViews" : [
        {
            "buffer" : 0,
            "byteLength" : 2592,
            "byteOffset" : 0,
            "target" : 34962
        },
        {
            "buffer" : 0,
            "byteLength" : 2592,
            "byteOffset" : 2592,
            "target" : 34962
        },
        {
            "buffer" : 0,
            "byteLength" : 1728,
            "byteOffset" : 5184,
            "target" : 34962
        },
        {
            "buffer" : 0,
            "byteLength" : 648,
            "byteOffset" : 6912,
            "target" : 34963
        },
        {
            "buffer" : 0,
            "byteLength" : 2352,
            "byteOffset" : 7560,
            "target" : 34962
        },
        {
            "buffer" : 0,
            "byteLength" : 2352,
            "byteOffset" : 9912,
            "target" : 34962
        },
        {
            "buffer" : 0,
            "byteLength" : 1568,
            "byteOffset" : 12264,
            "target" : 34962
        },
        {
            "buffer" : 0,
            "byteLength" : 1512,
            "byteOffset" : 13832,
            "target" : 34963
        },
        {
            "buffer" : 0,
            "byteLength" : 1812,
            "byteOffset" : 15344,
            "target" : 34962
        },
        {
            "buffer" : 0,
            "byteLength" : 1812,
            "byteOffset" : 17156,
            "target" : 34962
        },
        {
            "buffer" : 0,
            "byteLength" : 1208,
            "byteOffset" : 18968,
            "target" : 34962
        },
        {
            "buffer" : 0,
            "byteLength" : 1344,
            "byteOffset" : 20176,
            "target" : 34963
        },
        {
            "buffer" : 0,
            "byteLength" : 2352,
            "byteOffset" : 21520,
            "target" : 34962
        },
        {
            "buffer" : 0,
            "byteLength" : 2352,
            "byteOffset" : 23872,
            "target" : 34962
        },
        {
            "buffer" : 0,
            "byteLength" : 1568,
            "byteOffset" : 26224,
            "target" : 34962
        },
        {
            "buffer" : 0,
            "byteLength" : 1512,
            "byteOffset" : 27792,
            "target" : 34963
        },
        {
            "buffer" : 0,
            "byteLength" : 2592,
            "byteOffset" : 29304,
            "target" : 34962
        },
        {
            "buffer" : 0,
            "byteLength" : 2592,
            "byteOffset" : 31896,
            "target" : 34962
        },
        {
            "buffer" : 0,
            "byteLength" : 1728,
            "byteOffset" : 34488,
            "target" : 34962
        },
        {
            "buffer" : 0,
            "byteLength" : 648,
            "byteOffset" : 36216,
            "target" : 34963
        },
        {
            "buffer" : 0,
            "byteLength" : 1812,
            "byteOffset" : 36864,
            "target" : 34962
        },
        {
            "buffer" : 0,
            "byteLength" : 1812,
            "byteOffset" : 38676,
            "target" : 34962
        },
        {
            "buffer" : 0,
            "byteLength" : 1208,
            "byteOffset" : 40488,
            "target" : 34962
        }
    ],
    "buffers" : [
        {
            "byteLength" : 41696,
            "uri" : "data:application/octet-stream;base64,"
        }
    ]
}
