{
  "accessors": [
    {
      "bufferView": 2,
      "componentType": 5126,
      "count": 14791,
      "max": [
        511.439453125,
        1874.2861328125,
        218.8246612548828
      ],
      "min": [
        -511.4498596191406,
        15.743720054626465,
        -108.92776489257813
      ],
      "type": "VEC3"
    },
    {
      "bufferView": 2,
      "byteOffset": 177492,
      "componentType": 5126,
      "count": 14791,
      "max": [
        0.9999369382858276,
        0.9998348951339722,
        0.9999784231185913
      ],
      "min": [
        -0.9999370574951172,
        -0.9999637603759766,
        -0.9999998807907104
      ],
      "type": "VEC3"
    },
    {
      "bufferView": 3,
      "componentType": 5126,
      "count": 14791,
      "max": [
        1.0,
        0.9999776482582092,
        0.9999345541000366,
        1.0
      ],
      "min": [
        -0.9999009370803833,
        -0.9999694228172302,
        -0.9999316930770874,
        -1.0
      ],
      "type": "VEC4"
    },
    {
      "bufferView": 1,
      "componentType": 5126,
      "count": 14791,
      "max": [
        0.9934999942779541,
        0.9729909896850586
      ],
      "min": [
        0.009208000265061855,
        0.009607000276446342
      ],
      "type": "VEC2"
    },
    {
      "bufferView": 0,
      "componentType": 5125,
      "count": 81900,
      "type": "SCALAR"
    },
    {
      "bufferView": 2,
      "byteOffset": 354984,
      "componentType": 5126,
      "count": 552,
      "max": [
        46.73236083984375,
        1773.2008056640625,
        141.9781951904297
      ],
      "min": [
        -46.037803649902344,
        1743.151123046875,
        118.24453735351563
      ],
      "type": "VEC3"
    },
    {
      "bufferView": 2,
      "byteOffset": 361608,
      "componentType": 5126,
      "count": 552,
      "max": [
        0.9998388886451721,
        0.9996601939201355,
        0.9990719556808472
      ],
      "min": [
        -0.9998390078544617,
        -0.9997895956039429,
        -0.4166736900806427
      ],
      "type": "VEC3"
    },
    {
      "bufferView": 1,
      "byteOffset": 118328,
      "componentType": 5126,
      "count": 552,
      "max": [
        0.9765999913215637,
        0.9763000011444092
      ],
      "min": [
        0.03620000183582306,
        0.027899999171495438
      ],
      "type": "VEC2"
    },
    {
      "bufferView": 0,
      "byteOffset": 327600,
      "componentType": 5125,
      "count": 3180,
      "type": "SCALAR"
    }
  ],
  "asset": {
    "extras": {
      "author": "angelaxiotis (https://sketchfab.com/angelaxiotis)",
      "license": "CC-BY-4.0 (http://creativecommons.org/licenses/by/4.0/)",
      "source": "https://sketchfab.com/3d-models/free-base-mesh-e4049b5274904bf5ab91001b2bc25eae",
      "title": "Free Base Mesh"
    },
    "generator": "Sketchfab-12.64.0",
    "version": "2.0"
  },
  "bufferViews": [
    {
      "buffer": 0,
      "byteLength": 340320,
      "name": "floatBufferViews",
      "target": 34963
    },
    {
      "buffer": 0,
      "byteLength": 122744,
      "byteOffset": 340320,
      "byteStride": 8,
      "name": "floatBufferViews",
      "target": 34962
    },
    {
      "buffer": 0,
      "byteLength": 368232,
      "byteOffset": 463064,
      "byteStride": 12,
      "name": "floatBufferViews",
      "target": 34962
    },
    {
      "buffer": 0,
      "byteLength": 236656,
      "byteOffset": 831296,
      "byteStride": 16,
      "name": "floatBufferViews",
      "target": 34962
    }
  ],
  "buffers": [
    {
      "byteLength": 1067952,
      "uri": "scene.bin"
    }
  ],
  "images": [
    {
      "uri": "textures/material0_normal.png"
    },
    {
      "uri": "textures/material0_0_baseColor.png"
    }
  ],
  "materials": [
    {
      "doubleSided": true,
      "name": "material0",
      "normalTexture": {
        "index": 0
      },
      "pbrMetallicRoughness": {
        "baseColorFactor": [
          0.269285314947016,
          0.269285314947016,
          0.269285314947016,
          1.0
        ],
        "metallicFactor": 0.0,
        "roughnessFactor": 0.46294195001775573
      }
    },
    {
      "doubleSided": true,
      "name": "material0_0",
      "pbrMetallicRoughness": {
        "baseColorTexture": {
          "index": 1
        },
        "metallicFactor": 0.0,
        "roughnessFactor": 0.6
      }
    }
  ],
  "meshes": [
    {
      "name": "male_genericMesh_material0_0",
      "primitives": [
        {
          "attributes": {
            "NORMAL": 1,
            "POSITION": 0,
            "TANGENT": 2,
            "TEXCOORD_0": 3
          },
          "indices": 4,
          "material": 0,
          "mode": 4
        }
      ]
    },
    {
      "name": "high_polyMesh1_material0_0",
      "primitives": [
        {
          "attributes": {
            "NORMAL": 6,
            "POSITION": 5,
            "TEXCOORD_0": 7
          },
          "indices": 8,
          "material": 1,
          "mode": 4
        }
      ]
    }
  ],
  "nodes": [
    {
      "children": [
        1
      ],
      "matrix": [
        1.0,
        0.0,
        0.0,
        0.0,
        0.0,
        2.220446049250313e-16,
        -1.0,
        0.0,
        0.0,
        1.0,
        2.220446049250313e-16,
        0.0,
        0.0,
        0.0,
        0.0,
        1.0
      ],
      "name": "Sketchfab_model"
    },
    {
      "children": [
        2
      ],
      "matrix": [
        1.0,
        0.0,
        0.0,
        0.0,
        0.0,
        0.0,
        1.0,
        0.0,
        0.0,
        -1.0,
        0.0,
        0.0,
        0.0,
        0.0,
        0.0,
        1.0
      ],
      "name": "eedfdf4c5e9446fb8f06a26cb2f27a3b.fbx"
    },
    {
      "children": [
        3,
        5
      ],
      "name": "RootNode"
    },
    {
      "children": [
        4
      ],
      "name": "male_genericMesh"
    },
    {
      "mesh": 0,
      "name": "male_genericMesh_material0_0"
    },
    {
      "children": [
        6
      ],
      "name": "high_polyMesh1"
    },
    {
      "mesh": 1,
      "name": "high_polyMesh1_material0_0"
    }
  ],
  "samplers": [
    {
      "magFilter": 9729,
      "minFilter": 9987,
      "wrapS": 10497,
      "wrapT": 10497
    }
  ],
  "scene": 0,
  "scenes": [
    {
      "name": "Sketchfab_Scene",
      "nodes": [
        0
      ]
    }
  ],
  "textures": [
    {
      "sampler": 0,
      "source": 0
    },
    {
      "sampler": 0,
      "source": 1
    }
  ]
}
